<?xml version="1.0" encoding="utf-8"?>
<!-- Generator: Adobe Illustrator 21.1.0, SVG Export Plug-In . SVG Version: 6.00 Build 0)  -->
<svg version="1.1" xmlns="http://www.w3.org/2000/svg" xmlns:xlink="http://www.w3.org/1999/xlink" x="0px" y="0px"
	 viewBox="0 0 432 142" style="enable-background:new 0 0 432 142;" xml:space="preserve">
<style type="text/css">
	.st0{fill:none;stroke:#21A751;stroke-width:2;stroke-miterlimit:10;}
	.st1{fill:#F4E72B;stroke:#21A751;stroke-width:2;stroke-miterlimit:10;}
	.st2{display:none;}
	.st3{display:inline;}
</style>
<g id="Capa_1">
	<g>
		<rect x="1" y="1" class="st0" width="430" height="140"/>
		<rect x="1" y="1" class="st1" width="430" height="44"/>
		<rect x="1" y="1" class="st0" width="107.5" height="140"/>
		<rect x="108.5" y="1" class="st0" width="107.5" height="140"/>
		<rect x="216" y="1" class="st0" width="107.5" height="140"/>
		<rect x="323.5" y="1" class="st0" width="107.5" height="140"/>
		<g>
			<path d="M14.3,12.8h3.4c1,0,1.8,0.3,2.4,0.8c0.6,0.5,0.9,1.3,0.9,2.2c0,0.5-0.1,1.1-0.4,1.6c-0.3,0.6-0.8,1-1.5,1.3l2.9,4.3h-2.5
				l-2.7-4h-0.3v4h-2.2V12.8z M16.5,14.7v2.7H17c1.2,0,1.7-0.5,1.7-1.4c0-0.4-0.2-0.7-0.5-0.9c-0.3-0.2-0.7-0.3-1.3-0.3H16.5z"/>
			<path d="M23.6,12.8h5.8v2h-3.6v2.1h3.6v2h-3.6v2.1h3.6v2h-5.8V12.8z"/>
			<path d="M39,13.4v2.5c-1.1-0.7-2.1-1-2.9-1c-0.8,0-1.5,0.3-2,0.9c-0.5,0.6-0.8,1.3-0.8,2.3c0,0.9,0.3,1.6,0.8,2.2
				c0.5,0.5,1.2,0.8,2.1,0.8c0.8,0,1.7-0.3,2.8-0.9v2.5c-1.2,0.4-2.2,0.6-3,0.6c-1.4,0-2.6-0.5-3.5-1.5c-1-1-1.4-2.2-1.4-3.7
				c0-1.5,0.5-2.7,1.5-3.8c1-1,2.2-1.5,3.6-1.5C36.9,12.7,37.9,12.9,39,13.4z"/>
			<path d="M40.3,18c0-1.5,0.5-2.8,1.5-3.8c1-1,2.2-1.5,3.6-1.5c1.5,0,2.8,0.5,3.8,1.5c1,1,1.5,2.2,1.5,3.8c0,1.5-0.5,2.8-1.5,3.8
				c-1,1-2.2,1.5-3.7,1.5c-1.5,0-2.7-0.5-3.7-1.5C40.8,20.8,40.3,19.5,40.3,18z M45.5,14.8c-0.9,0-1.6,0.3-2.1,0.9
				c-0.5,0.6-0.8,1.4-0.8,2.4c0,0.9,0.3,1.7,0.8,2.3c0.5,0.6,1.2,0.9,2,0.9c0.9,0,1.6-0.3,2.1-0.9c0.5-0.6,0.8-1.4,0.8-2.3
				c0-1-0.3-1.7-0.8-2.3C47,15.1,46.3,14.8,45.5,14.8z"/>
			<path d="M52.4,12.8h3.4c1,0,1.8,0.3,2.4,0.8c0.6,0.5,0.9,1.3,0.9,2.2c0,0.5-0.1,1.1-0.4,1.6c-0.3,0.6-0.8,1-1.5,1.3l2.9,4.3h-2.5
				l-2.7-4h-0.3v4h-2.2V12.8z M54.7,14.7v2.7h0.5c1.2,0,1.7-0.5,1.7-1.4c0-0.4-0.2-0.7-0.5-0.9c-0.3-0.2-0.7-0.3-1.3-0.3H54.7z"/>
			<path d="M61.8,12.8h3.4c1,0,1.8,0.3,2.4,0.8c0.6,0.5,0.9,1.3,0.9,2.2c0,0.5-0.1,1.1-0.4,1.6c-0.3,0.6-0.8,1-1.5,1.3l2.9,4.3h-2.5
				l-2.7-4H64v4h-2.2V12.8z M64,14.7v2.7h0.5c1.2,0,1.7-0.5,1.7-1.4c0-0.4-0.2-0.7-0.5-0.9c-0.3-0.2-0.7-0.3-1.3-0.3H64z"/>
			<path d="M71,12.8h2.2v10.3H71V12.8z"/>
			<path d="M75.2,12.8h3.5c1.5,0,2.7,0.5,3.6,1.4c0.9,0.9,1.4,2.2,1.4,3.7c0,1.5-0.5,2.8-1.4,3.7c-0.9,0.9-2.2,1.4-3.8,1.4h-3.3
				V12.8z M77.5,14.8v6.3h0.9c0.9,0,1.7-0.2,2.2-0.7c0.6-0.5,0.9-1.3,0.9-2.5c0-0.7-0.1-1.3-0.4-1.8c-0.3-0.5-0.7-0.9-1.2-1.1
				c-0.5-0.2-1-0.3-1.5-0.3H77.5z"/>
			<path d="M85.1,18c0-1.5,0.5-2.8,1.5-3.8c1-1,2.2-1.5,3.6-1.5c1.5,0,2.8,0.5,3.8,1.5c1,1,1.5,2.2,1.5,3.8c0,1.5-0.5,2.8-1.5,3.8
				c-1,1-2.2,1.5-3.7,1.5c-1.5,0-2.7-0.5-3.7-1.5C85.6,20.8,85.1,19.5,85.1,18z M90.3,14.8c-0.9,0-1.6,0.3-2.1,0.9
				c-0.5,0.6-0.8,1.4-0.8,2.4c0,0.9,0.3,1.7,0.8,2.3c0.5,0.6,1.2,0.9,2,0.9c0.9,0,1.6-0.3,2.1-0.9c0.5-0.6,0.8-1.4,0.8-2.3
				c0-1-0.3-1.7-0.8-2.3C91.8,15.1,91.1,14.8,90.3,14.8z"/>
			<path d="M34.5,26.8h1.7l4.2,10.3h-2.2l-0.8-2h-3.9l-0.8,2h-2.2L34.5,26.8z M35.4,30.2l-1.2,3h2.4L35.4,30.2z"/>
			<path d="M48.7,26.8h2.2v10.3h-2.2l-4.7-6.6v6.6h-2.2V26.8H44l4.7,6.6V26.8z"/>
			<path d="M53,26.8h2.2v6.3c0,0.6,0.2,1.1,0.5,1.4c0.3,0.4,0.7,0.5,1.3,0.5c0.6,0,1.1-0.2,1.4-0.5c0.3-0.4,0.5-0.9,0.5-1.5v-6.2H61
				v6.6c0,0.6-0.2,1.2-0.5,1.8c-0.3,0.6-0.8,1.1-1.4,1.4c-0.6,0.3-1.3,0.5-2.1,0.5c-1.4,0-2.4-0.4-3.1-1.2c-0.7-0.8-1-1.6-1-2.5
				V26.8z"/>
			<path d="M66.4,26.8h1.7l4.2,10.3H70l-0.8-2h-3.9l-0.8,2h-2.2L66.4,26.8z M67.2,30.2l-1.2,3h2.4L67.2,30.2z"/>
			<path d="M73.9,26.8H76v8h3v2.2h-5.2V26.8z"/>
		</g>
		<g>
			<path d="M121.8,12.8h3.4c1,0,1.8,0.3,2.4,0.8c0.6,0.5,0.9,1.3,0.9,2.2c0,0.5-0.1,1.1-0.4,1.6c-0.3,0.6-0.8,1-1.5,1.3l2.9,4.3
				h-2.5l-2.7-4H124v4h-2.2V12.8z M124,14.7v2.7h0.5c1.2,0,1.7-0.5,1.7-1.4c0-0.4-0.2-0.7-0.5-0.9c-0.3-0.2-0.7-0.3-1.3-0.3H124z"/>
			<path d="M131.1,12.8h5.8v2h-3.6v2.1h3.6v2h-3.6v2.1h3.6v2h-5.8V12.8z"/>
			<path d="M146.5,13.4v2.5c-1.1-0.7-2.1-1-2.9-1c-0.8,0-1.5,0.3-2,0.9c-0.5,0.6-0.8,1.3-0.8,2.3c0,0.9,0.3,1.6,0.8,2.2
				c0.5,0.5,1.2,0.8,2.1,0.8c0.8,0,1.7-0.3,2.8-0.9v2.5c-1.2,0.4-2.2,0.6-3,0.6c-1.4,0-2.6-0.5-3.5-1.5c-1-1-1.4-2.2-1.4-3.7
				c0-1.5,0.5-2.7,1.5-3.8c1-1,2.2-1.5,3.6-1.5C144.4,12.7,145.4,12.9,146.5,13.4z"/>
			<path d="M147.8,18c0-1.5,0.5-2.8,1.5-3.8c1-1,2.2-1.5,3.6-1.5c1.5,0,2.8,0.5,3.8,1.5c1,1,1.5,2.2,1.5,3.8c0,1.5-0.5,2.8-1.5,3.8
				c-1,1-2.2,1.5-3.7,1.5c-1.5,0-2.7-0.5-3.7-1.5C148.3,20.8,147.8,19.5,147.8,18z M153,14.8c-0.9,0-1.6,0.3-2.1,0.9
				c-0.5,0.6-0.8,1.4-0.8,2.4c0,0.9,0.3,1.7,0.8,2.3c0.5,0.6,1.2,0.9,2,0.9c0.9,0,1.6-0.3,2.1-0.9c0.5-0.6,0.8-1.4,0.8-2.3
				c0-1-0.3-1.7-0.8-2.3C154.5,15.1,153.8,14.8,153,14.8z"/>
			<path d="M159.9,12.8h3.4c1,0,1.8,0.3,2.4,0.8c0.6,0.5,0.9,1.3,0.9,2.2c0,0.5-0.1,1.1-0.4,1.6c-0.3,0.6-0.8,1-1.5,1.3l2.9,4.3
				h-2.5l-2.7-4h-0.3v4h-2.2V12.8z M162.2,14.7v2.7h0.5c1.2,0,1.7-0.5,1.7-1.4c0-0.4-0.2-0.7-0.5-0.9c-0.3-0.2-0.7-0.3-1.3-0.3
				H162.2z"/>
			<path d="M169.3,12.8h3.4c1,0,1.8,0.3,2.4,0.8c0.6,0.5,0.9,1.3,0.9,2.2c0,0.5-0.1,1.1-0.4,1.6c-0.3,0.6-0.8,1-1.5,1.3l2.9,4.3
				h-2.5l-2.7-4h-0.3v4h-2.2V12.8z M171.5,14.7v2.7h0.5c1.2,0,1.7-0.5,1.7-1.4c0-0.4-0.2-0.7-0.5-0.9c-0.3-0.2-0.7-0.3-1.3-0.3
				H171.5z"/>
			<path d="M178.5,12.8h2.2v10.3h-2.2V12.8z"/>
			<path d="M182.7,12.8h3.5c1.5,0,2.7,0.5,3.6,1.4c0.9,0.9,1.4,2.2,1.4,3.7c0,1.5-0.5,2.8-1.4,3.7c-0.9,0.9-2.2,1.4-3.8,1.4h-3.3
				V12.8z M185,14.8v6.3h0.9c0.9,0,1.7-0.2,2.2-0.7c0.6-0.5,0.9-1.3,0.9-2.5c0-0.7-0.1-1.3-0.4-1.8c-0.3-0.5-0.7-0.9-1.2-1.1
				c-0.5-0.2-1-0.3-1.5-0.3H185z"/>
			<path d="M192.6,18c0-1.5,0.5-2.8,1.5-3.8c1-1,2.2-1.5,3.6-1.5c1.5,0,2.8,0.5,3.8,1.5c1,1,1.5,2.2,1.5,3.8c0,1.5-0.5,2.8-1.5,3.8
				c-1,1-2.2,1.5-3.7,1.5c-1.5,0-2.7-0.5-3.7-1.5C193.1,20.8,192.6,19.5,192.6,18z M197.8,14.8c-0.9,0-1.6,0.3-2.1,0.9
				c-0.5,0.6-0.8,1.4-0.8,2.4c0,0.9,0.3,1.7,0.8,2.3c0.5,0.6,1.2,0.9,2,0.9c0.9,0,1.6-0.3,2.1-0.9c0.5-0.6,0.8-1.4,0.8-2.3
				c0-1-0.3-1.7-0.8-2.3C199.3,15.1,198.6,14.8,197.8,14.8z"/>
			<path d="M137.9,26.8h3.5c1.5,0,2.7,0.5,3.6,1.4c0.9,0.9,1.4,2.2,1.4,3.7c0,1.5-0.5,2.8-1.4,3.7c-0.9,0.9-2.2,1.4-3.8,1.4h-3.3
				V26.8z M140.1,28.8v6.3h0.9c0.9,0,1.7-0.2,2.2-0.7c0.6-0.5,0.9-1.3,0.9-2.5c0-0.7-0.1-1.3-0.4-1.8c-0.3-0.5-0.7-0.9-1.2-1.1
				c-0.5-0.2-1-0.3-1.5-0.3H140.1z"/>
			<path d="M148,26.8h2.2v10.3H148V26.8z"/>
			<path d="M155.8,26.8h1.7l4.2,10.3h-2.2l-0.8-2h-3.9l-0.8,2h-2.2L155.8,26.8z M156.7,30.2l-1.2,3h2.4L156.7,30.2z"/>
			<path d="M163.3,26.8h3.4c1,0,1.8,0.3,2.4,0.8c0.6,0.5,0.9,1.3,0.9,2.2c0,0.5-0.1,1.1-0.4,1.6c-0.3,0.6-0.8,1-1.5,1.3l2.9,4.3
				h-2.5l-2.7-4h-0.3v4h-2.2V26.8z M165.5,28.7v2.7h0.5c1.2,0,1.7-0.5,1.7-1.4c0-0.4-0.2-0.7-0.5-0.9c-0.3-0.2-0.7-0.3-1.3-0.3
				H165.5z"/>
			<path d="M172.5,26.8h2.2v10.3h-2.2V26.8z"/>
			<path d="M176.4,32c0-1.5,0.5-2.8,1.5-3.8c1-1,2.2-1.5,3.6-1.5c1.5,0,2.8,0.5,3.8,1.5c1,1,1.5,2.2,1.5,3.8c0,1.5-0.5,2.8-1.5,3.8
				c-1,1-2.2,1.5-3.7,1.5c-1.5,0-2.7-0.5-3.7-1.5C176.9,34.8,176.4,33.5,176.4,32z M181.6,28.8c-0.9,0-1.6,0.3-2.1,0.9
				c-0.5,0.6-0.8,1.4-0.8,2.4c0,0.9,0.3,1.7,0.8,2.3c0.5,0.6,1.2,0.9,2,0.9c0.9,0,1.6-0.3,2.1-0.9c0.5-0.6,0.8-1.4,0.8-2.3
				c0-1-0.3-1.7-0.8-2.3C183.2,29.1,182.5,28.8,181.6,28.8z"/>
		</g>
		<g>
			<path d="M229.3,15.1l-1.5,1.4c-0.3-0.5-0.7-0.9-1.1-1.2c-0.5-0.3-0.9-0.4-1.4-0.4c-0.8,0-1.5,0.3-2.1,0.9
				c-0.6,0.6-0.9,1.3-0.9,2.2c0,0.9,0.3,1.6,0.9,2.2c0.6,0.6,1.3,0.9,2.1,0.9c0.5,0,0.9-0.1,1.3-0.3c0.4-0.2,0.8-0.7,1-1.3h-2.4v-2
				h4.7v1.3c0,0.7-0.2,1.4-0.7,2.2c-0.5,0.8-1.1,1.4-1.9,1.7c-0.8,0.4-1.5,0.5-2.3,0.5c-1.4,0-2.6-0.5-3.6-1.5c-1-1-1.5-2.3-1.5-3.8
				c0-1.4,0.5-2.7,1.5-3.7c1-1,2.2-1.5,3.6-1.5C226.9,12.7,228.3,13.5,229.3,15.1z"/>
			<path d="M235.1,12.8h1.7l4.2,10.3h-2.2l-0.8-2H234l-0.8,2H231L235.1,12.8z M236,16.2l-1.2,3h2.4L236,16.2z"/>
			<path d="M248.3,13.8l-1.4,1.5c-0.7-0.4-1.2-0.6-1.6-0.6c-0.2,0-0.5,0.1-0.6,0.3c-0.2,0.2-0.3,0.4-0.3,0.7c0,0.5,0.5,0.9,1.4,1.3
				c0.7,0.3,1.2,0.5,1.5,0.8c0.3,0.2,0.6,0.6,0.9,1c0.2,0.4,0.3,0.9,0.3,1.3c0,0.9-0.4,1.6-1.1,2.3c-0.7,0.7-1.6,1-2.5,1
				c-1.1,0-2.1-0.5-3.1-1.5l1.5-1.7c0.7,0.7,1.3,1,1.8,1c0.3,0,0.5-0.1,0.8-0.4c0.2-0.2,0.4-0.5,0.4-0.7c0-0.5-0.6-1-1.7-1.4
				c-0.6-0.2-1.1-0.5-1.4-0.7c-0.3-0.2-0.5-0.5-0.7-0.9c-0.2-0.4-0.3-0.8-0.3-1.2c0-0.9,0.3-1.7,0.9-2.2c0.6-0.6,1.4-0.9,2.3-0.9
				C246.6,12.7,247.6,13.1,248.3,13.8z"/>
			<path d="M249.5,12.8h6.9V15H254v8.1h-2.2V15h-2.3V12.8z"/>
			<path d="M257.4,18c0-1.5,0.5-2.8,1.5-3.8c1-1,2.2-1.5,3.6-1.5c1.5,0,2.8,0.5,3.8,1.5c1,1,1.5,2.2,1.5,3.8c0,1.5-0.5,2.8-1.5,3.8
				c-1,1-2.2,1.5-3.7,1.5c-1.5,0-2.7-0.5-3.7-1.5C257.8,20.8,257.4,19.5,257.4,18z M262.5,14.8c-0.9,0-1.6,0.3-2.1,0.9
				c-0.5,0.6-0.8,1.4-0.8,2.4c0,0.9,0.3,1.7,0.8,2.3c0.5,0.6,1.2,0.9,2,0.9c0.9,0,1.6-0.3,2.1-0.9c0.5-0.6,0.8-1.4,0.8-2.3
				c0-1-0.3-1.7-0.8-2.3C264.1,15.1,263.4,14.8,262.5,14.8z"/>
			<path d="M280.6,12.8h2.2v10.3h-2.2l-4.7-6.6v6.6h-2.2V12.8h2.2l4.7,6.6V12.8z"/>
			<path d="M288.4,12.8h1.7l4.2,10.3H292l-0.8-2h-3.9l-0.8,2h-2.2L288.4,12.8z M289.2,16.2l-1.2,3h2.4L289.2,16.2z"/>
			<path d="M295.8,12.8h5.8v2H298v2.1h3.6v2H298v4.2h-2.2V12.8z"/>
			<path d="M302.8,12.8h6.9V15h-2.4v8.1h-2.2V15h-2.3V12.8z"/>
			<path d="M313.6,12.8h1.7l4.2,10.3h-2.2l-0.8-2h-3.9l-0.8,2h-2.2L313.6,12.8z M314.4,16.2l-1.2,3h2.4L314.4,16.2z"/>
			<path d="M227.9,27.8l-1.4,1.5c-0.7-0.4-1.2-0.6-1.6-0.6c-0.2,0-0.5,0.1-0.6,0.3c-0.2,0.2-0.3,0.4-0.3,0.7c0,0.5,0.5,0.9,1.4,1.3
				c0.7,0.3,1.2,0.5,1.5,0.8c0.3,0.2,0.6,0.6,0.9,1c0.2,0.4,0.3,0.9,0.3,1.3c0,0.9-0.4,1.6-1.1,2.3c-0.7,0.7-1.6,1-2.5,1
				c-1.1,0-2.1-0.5-3.1-1.5l1.5-1.7c0.7,0.7,1.3,1,1.8,1c0.3,0,0.5-0.1,0.8-0.4c0.2-0.2,0.4-0.5,0.4-0.7c0-0.5-0.6-1-1.7-1.4
				c-0.6-0.2-1.1-0.5-1.4-0.7c-0.3-0.2-0.5-0.5-0.7-0.9c-0.2-0.4-0.3-0.8-0.3-1.2c0-0.9,0.3-1.7,0.9-2.2c0.6-0.6,1.4-0.9,2.3-0.9
				C226.2,26.7,227.2,27.1,227.9,27.8z"/>
			<path d="M229.8,26.8h2.2v6.3c0,0.6,0.2,1.1,0.5,1.4c0.3,0.4,0.7,0.5,1.3,0.5c0.6,0,1.1-0.2,1.4-0.5c0.3-0.4,0.5-0.9,0.5-1.5v-6.2
				h2.2v6.6c0,0.6-0.2,1.2-0.5,1.8c-0.3,0.6-0.8,1.1-1.4,1.4c-0.6,0.3-1.3,0.5-2.1,0.5c-1.4,0-2.4-0.4-3.1-1.2c-0.7-0.8-1-1.6-1-2.5
				V26.8z"/>
			<path d="M240,26.8h3.5c0.9,0,1.7,0.3,2.3,0.8c0.6,0.5,0.9,1.3,0.9,2.2c0,0.6-0.1,1.1-0.4,1.7c-0.3,0.5-0.7,0.9-1.3,1.2
				c-0.6,0.3-1.1,0.4-1.5,0.4l-1.3,0v4H240V26.8z M242.2,28.7v2.6h0.9c0.4,0,0.7-0.1,0.9-0.4c0.3-0.3,0.4-0.6,0.4-0.9
				c0-0.4-0.1-0.7-0.4-1c-0.3-0.2-0.7-0.3-1.3-0.3L242.2,28.7z"/>
			<path d="M248.5,26.8h5.8v2h-3.6v2.1h3.6v2h-3.6v2.1h3.6v2h-5.8V26.8z"/>
			<path d="M256.1,26.8h3.4c1,0,1.8,0.3,2.4,0.8c0.6,0.5,0.9,1.3,0.9,2.2c0,0.5-0.1,1.1-0.4,1.6c-0.3,0.6-0.8,1-1.5,1.3l2.9,4.3
				h-2.5l-2.7-4h-0.3v4h-2.2V26.8z M258.3,28.7v2.7h0.5c1.2,0,1.7-0.5,1.7-1.4c0-0.4-0.2-0.7-0.5-0.9s-0.7-0.3-1.3-0.3H258.3z"/>
			<path d="M273.3,26.8h1.7l4.2,10.3h-2.2l-0.8-2h-3.9l-0.8,2h-2.2L273.3,26.8z M274.1,30.2l-1.2,3h2.4L274.1,30.2z"/>
			<path d="M287.5,26.8h2.2v10.3h-2.2l-4.7-6.6v6.6h-2.2V26.8h2.2l4.7,6.6V26.8z"/>
			<path d="M291.7,26.8h2.2v6.3c0,0.6,0.2,1.1,0.5,1.4c0.3,0.4,0.7,0.5,1.3,0.5c0.6,0,1.1-0.2,1.4-0.5c0.3-0.4,0.5-0.9,0.5-1.5v-6.2
				h2.2v6.6c0,0.6-0.2,1.2-0.5,1.8c-0.3,0.6-0.8,1.1-1.4,1.4c-0.6,0.3-1.3,0.5-2.1,0.5c-1.4,0-2.4-0.4-3.1-1.2c-0.7-0.8-1-1.6-1-2.5
				V26.8z"/>
			<path d="M305.1,26.8h1.7l4.2,10.3h-2.2l-0.8-2H304l-0.8,2H301L305.1,26.8z M306,30.2l-1.2,3h2.4L306,30.2z"/>
			<path d="M312.6,26.8h2.2v8h3v2.2h-5.2V26.8z"/>
		</g>
		<g>
			<path d="M362.5,15.1l-1.5,1.4c-0.3-0.5-0.7-0.9-1.1-1.2c-0.5-0.3-0.9-0.4-1.4-0.4c-0.8,0-1.5,0.3-2.1,0.9
				c-0.6,0.6-0.9,1.3-0.9,2.2c0,0.9,0.3,1.6,0.9,2.2c0.6,0.6,1.3,0.9,2.1,0.9c0.5,0,0.9-0.1,1.3-0.3c0.4-0.2,0.8-0.7,1-1.3h-2.4v-2
				h4.7v1.3c0,0.7-0.2,1.4-0.7,2.2c-0.5,0.8-1.1,1.4-1.9,1.7c-0.8,0.4-1.5,0.5-2.3,0.5c-1.4,0-2.6-0.5-3.6-1.5c-1-1-1.5-2.3-1.5-3.8
				c0-1.4,0.5-2.7,1.5-3.7c1-1,2.2-1.5,3.6-1.5C360.2,12.7,361.5,13.5,362.5,15.1z"/>
			<path d="M368.4,12.8h1.7l4.2,10.3H372l-0.8-2h-3.9l-0.8,2h-2.2L368.4,12.8z M369.2,16.2l-1.2,3h2.4L369.2,16.2z"/>
			<path d="M381.6,13.8l-1.4,1.5c-0.7-0.4-1.2-0.6-1.6-0.6c-0.2,0-0.5,0.1-0.6,0.3c-0.2,0.2-0.3,0.4-0.3,0.7c0,0.5,0.5,0.9,1.4,1.3
				c0.7,0.3,1.2,0.5,1.5,0.8c0.3,0.2,0.6,0.6,0.9,1c0.2,0.4,0.3,0.9,0.3,1.3c0,0.9-0.4,1.6-1.1,2.3c-0.7,0.7-1.6,1-2.5,1
				c-1.1,0-2.1-0.5-3.1-1.5l1.5-1.7c0.7,0.7,1.3,1,1.8,1c0.3,0,0.5-0.1,0.8-0.4c0.2-0.2,0.4-0.5,0.4-0.7c0-0.5-0.6-1-1.7-1.4
				c-0.6-0.2-1.1-0.5-1.4-0.7c-0.3-0.2-0.5-0.5-0.7-0.9c-0.2-0.4-0.3-0.8-0.3-1.2c0-0.9,0.3-1.7,0.9-2.2c0.6-0.6,1.4-0.9,2.3-0.9
				C379.8,12.7,380.8,13.1,381.6,13.8z"/>
			<path d="M382.7,12.8h6.9V15h-2.4v8.1h-2.2V15h-2.3V12.8z"/>
			<path d="M390.6,18c0-1.5,0.5-2.8,1.5-3.8c1-1,2.2-1.5,3.6-1.5c1.5,0,2.8,0.5,3.8,1.5c1,1,1.5,2.2,1.5,3.8c0,1.5-0.5,2.8-1.5,3.8
				c-1,1-2.2,1.5-3.7,1.5c-1.5,0-2.7-0.5-3.7-1.5C391.1,20.8,390.6,19.5,390.6,18z M395.8,14.8c-0.9,0-1.6,0.3-2.1,0.9
				c-0.5,0.6-0.8,1.4-0.8,2.4c0,0.9,0.3,1.7,0.8,2.3c0.5,0.6,1.2,0.9,2,0.9c0.9,0,1.6-0.3,2.1-0.9c0.5-0.6,0.8-1.4,0.8-2.3
				c0-1-0.3-1.7-0.8-2.3C397.3,15.1,396.6,14.8,395.8,14.8z"/>
			<path d="M344.4,29.1l-1.5,1.4c-0.3-0.5-0.7-0.9-1.1-1.2c-0.5-0.3-0.9-0.4-1.4-0.4c-0.8,0-1.5,0.3-2.1,0.9
				c-0.6,0.6-0.9,1.3-0.9,2.2c0,0.9,0.3,1.6,0.9,2.2c0.6,0.6,1.3,0.9,2.1,0.9c0.5,0,0.9-0.1,1.3-0.3c0.4-0.2,0.8-0.7,1-1.3h-2.4v-2
				h4.7v1.3c0,0.7-0.2,1.4-0.7,2.2c-0.5,0.8-1.1,1.4-1.9,1.7c-0.8,0.4-1.5,0.5-2.3,0.5c-1.4,0-2.6-0.5-3.6-1.5c-1-1-1.5-2.3-1.5-3.8
				c0-1.4,0.5-2.7,1.5-3.7c1-1,2.2-1.5,3.6-1.5C342,26.7,343.4,27.5,344.4,29.1z"/>
			<path d="M353.4,26.8h2.2v10.3h-2.2l-4.7-6.6v6.6h-2.2V26.8h2.2l4.7,6.6V26.8z"/>
			<path d="M365.3,27.4v2.5c-1.1-0.7-2.1-1-2.9-1c-0.8,0-1.5,0.3-2,0.9c-0.5,0.6-0.8,1.3-0.8,2.3c0,0.9,0.3,1.6,0.8,2.2
				c0.5,0.5,1.2,0.8,2.1,0.8c0.8,0,1.7-0.3,2.8-0.9v2.5c-1.2,0.4-2.2,0.6-3,0.6c-1.4,0-2.6-0.5-3.5-1.5c-1-1-1.4-2.2-1.4-3.7
				c0-1.5,0.5-2.7,1.5-3.8c1-1,2.2-1.5,3.6-1.5C363.3,26.7,364.3,26.9,365.3,27.4z"/>
			<path d="M374.8,26.8h1.7l4.2,10.3h-2.2l-0.8-2h-3.9l-0.8,2h-2.2L374.8,26.8z M375.7,30.2l-1.2,3h2.4L375.7,30.2z"/>
			<path d="M389,26.8h2.2v10.3H389l-4.7-6.6v6.6h-2.2V26.8h2.2l4.7,6.6V26.8z"/>
			<path d="M393.3,26.8h2.2v6.3c0,0.6,0.2,1.1,0.5,1.4c0.3,0.4,0.7,0.5,1.3,0.5c0.6,0,1.1-0.2,1.4-0.5c0.3-0.4,0.5-0.9,0.5-1.5v-6.2
				h2.2v6.6c0,0.6-0.2,1.2-0.5,1.8c-0.3,0.6-0.8,1.1-1.4,1.4c-0.6,0.3-1.3,0.5-2.1,0.5c-1.4,0-2.4-0.4-3.1-1.2c-0.7-0.8-1-1.6-1-2.5
				V26.8z"/>
			<path d="M406.7,26.8h1.7l4.2,10.3h-2.2l-0.8-2h-3.9l-0.8,2h-2.2L406.7,26.8z M407.5,30.2l-1.2,3h2.4L407.5,30.2z"/>
			<path d="M414.2,26.8h2.2v8h3v2.2h-5.2V26.8z"/>
		</g>
		<g>
			<path d="M16.7,95.8h4.1v2.7h-10l4.9-6.2c0.7-0.9,1.2-1.7,1.5-2.2c0.3-0.6,0.5-1.1,0.5-1.6c0-0.6-0.2-1-0.5-1.4
				c-0.4-0.4-0.8-0.5-1.4-0.5c-0.6,0-1.1,0.2-1.4,0.7c-0.3,0.5-0.5,1.2-0.5,2.1h-3.2c0-1.7,0.5-3.1,1.5-4c1-1,2.3-1.4,3.8-1.4
				c1.4,0,2.6,0.4,3.4,1.2c0.9,0.8,1.3,1.9,1.3,3.2c0,1.3-0.5,2.6-1.6,4.2l-0.9,1.2c-0.3,0.5-0.8,1.1-1.3,1.7L16.7,95.8z"/>
			<path d="M27.9,83.9c1.7,0,3.1,0.7,4.1,2s1.5,3,1.5,5.2c0,2.5-0.6,4.4-1.7,5.7c-1.1,1.2-2.4,1.8-3.9,1.8c-1.7,0-3-0.7-4.1-2
				c-1-1.3-1.6-3-1.6-5.2c0-2.3,0.5-4.1,1.5-5.5C24.8,84.6,26.2,83.9,27.9,83.9L27.9,83.9z M30.5,91.4c0-1.5-0.2-2.6-0.7-3.4
				s-1.1-1.2-1.9-1.2c-0.8,0-1.5,0.4-1.9,1.2s-0.7,2-0.7,3.5c0,1.3,0.2,2.4,0.7,3.2s1.1,1.2,1.9,1.2c0.8,0,1.4-0.4,1.9-1.2
				C30.3,93.9,30.5,92.8,30.5,91.4z"/>
			<path d="M40.2,83.9c1.7,0,3.1,0.7,4.1,2s1.5,3,1.5,5.2c0,2.5-0.6,4.4-1.7,5.7c-1.1,1.2-2.4,1.8-3.9,1.8c-1.7,0-3-0.7-4.1-2
				c-1-1.3-1.6-3-1.6-5.2c0-2.3,0.5-4.1,1.5-5.5C37,84.6,38.4,83.9,40.2,83.9L40.2,83.9z M42.7,91.4c0-1.5-0.2-2.6-0.7-3.4
				s-1.1-1.2-1.9-1.2c-0.8,0-1.5,0.4-1.9,1.2s-0.7,2-0.7,3.5c0,1.3,0.2,2.4,0.7,3.2s1.1,1.2,1.9,1.2c0.8,0,1.4-0.4,1.9-1.2
				C42.5,93.9,42.7,92.8,42.7,91.4z"/>
			<path d="M52.4,83.9c1.7,0,3.1,0.7,4.1,2s1.5,3,1.5,5.2c0,2.5-0.6,4.4-1.7,5.7c-1.1,1.2-2.4,1.8-3.9,1.8c-1.7,0-3-0.7-4.1-2
				c-1-1.3-1.6-3-1.6-5.2c0-2.3,0.5-4.1,1.5-5.5C49.3,84.6,50.6,83.9,52.4,83.9L52.4,83.9z M54.9,91.4c0-1.5-0.2-2.6-0.7-3.4
				s-1.1-1.2-1.9-1.2c-0.8,0-1.5,0.4-1.9,1.2s-0.7,2-0.7,3.5c0,1.3,0.2,2.4,0.7,3.2s1.1,1.2,1.9,1.2c0.8,0,1.4-0.4,1.9-1.2
				C54.7,93.9,54.9,92.8,54.9,91.4z"/>
			<path d="M64.6,83.9c1.7,0,3.1,0.7,4.1,2s1.5,3,1.5,5.2c0,2.5-0.6,4.4-1.7,5.7c-1.1,1.2-2.4,1.8-3.9,1.8c-1.7,0-3-0.7-4.1-2
				c-1-1.3-1.6-3-1.6-5.2c0-2.3,0.5-4.1,1.5-5.5C61.5,84.6,62.8,83.9,64.6,83.9L64.6,83.9z M67.1,91.4c0-1.5-0.2-2.6-0.7-3.4
				s-1.1-1.2-1.9-1.2c-0.8,0-1.5,0.4-1.9,1.2s-0.7,2-0.7,3.5c0,1.3,0.2,2.4,0.7,3.2s1.1,1.2,1.9,1.2c0.8,0,1.4-0.4,1.9-1.2
				C66.9,93.9,67.1,92.8,67.1,91.4z"/>
			<path d="M71.9,83.5h2.9v9.1l2.9-3.8h3.4l-3.2,4.3l3.5,5.4h-3.2l-3.3-5.1v5.1h-2.9V83.5z"/>
			<path d="M86.1,88.8v1.5c0.1-0.1,0.3-0.3,0.6-0.5c0.3-0.3,0.5-0.5,0.8-0.6c0.2-0.2,0.5-0.3,0.9-0.4c0.3-0.1,0.6-0.2,0.9-0.2
				c0.4,0,0.9,0.2,1.4,0.5s0.9,0.9,1.3,1.7c0.6-0.8,1.2-1.3,1.8-1.6c0.6-0.3,1.1-0.5,1.6-0.5c0.9,0,1.6,0.4,2.2,1.1
				c0.6,0.7,0.9,1.6,0.9,2.7v6.1h-2.9v-5.4c0-0.5-0.1-1-0.4-1.3c-0.3-0.4-0.6-0.5-1.1-0.5c-0.5,0-0.9,0.2-1.3,0.6
				c-0.4,0.4-0.5,0.9-0.5,1.5v5.2h-2.9v-5.2c0-0.6-0.1-1-0.4-1.4c-0.3-0.4-0.7-0.6-1.1-0.6c-0.5,0-0.9,0.2-1.3,0.6
				c-0.4,0.4-0.5,0.9-0.5,1.5v5.1h-2.9v-9.7H86.1z"/>
		</g>
		<g>
			<path d="M130.5,84.2h4.7v14.3H132V86.8H130L130.5,84.2z"/>
			<path d="M145.9,83.9c1.7,0,3.1,0.7,4.1,2s1.5,3,1.5,5.2c0,2.5-0.6,4.4-1.7,5.7c-1.1,1.2-2.4,1.8-3.9,1.8c-1.7,0-3-0.7-4.1-2
				c-1-1.3-1.6-3-1.6-5.2c0-2.3,0.5-4.1,1.5-5.5C142.8,84.6,144.1,83.9,145.9,83.9L145.9,83.9z M148.4,91.4c0-1.5-0.2-2.6-0.7-3.4
				s-1.1-1.2-1.9-1.2c-0.8,0-1.5,0.4-1.9,1.2s-0.7,2-0.7,3.5c0,1.3,0.2,2.4,0.7,3.2s1.1,1.2,1.9,1.2c0.8,0,1.4-0.4,1.9-1.2
				C148.2,93.9,148.4,92.8,148.4,91.4z"/>
			<path d="M158.1,83.9c1.7,0,3.1,0.7,4.1,2s1.5,3,1.5,5.2c0,2.5-0.6,4.4-1.7,5.7c-1.1,1.2-2.4,1.8-3.9,1.8c-1.7,0-3-0.7-4.1-2
				c-1-1.3-1.6-3-1.6-5.2c0-2.3,0.5-4.1,1.5-5.5C155,84.6,156.3,83.9,158.1,83.9L158.1,83.9z M160.6,91.4c0-1.5-0.2-2.6-0.7-3.4
				s-1.1-1.2-1.9-1.2c-0.8,0-1.5,0.4-1.9,1.2s-0.7,2-0.7,3.5c0,1.3,0.2,2.4,0.7,3.2s1.1,1.2,1.9,1.2c0.8,0,1.4-0.4,1.9-1.2
				C160.4,93.9,160.6,92.8,160.6,91.4z"/>
			<path d="M165.7,83.7h3.2V90h0l4.9-6.2h3.9l-5.6,7l5.8,7.7h-3.8l-5.2-6.9h0v6.9h-3.2V83.7z"/>
			<path d="M181.3,83.7h3.8l2.8,8.8l2.8-8.8h3.6l1.9,14.7h-3l-1.3-10.4l-3.2,10.4h-1.4L183.8,88l-1.2,10.5h-3.1L181.3,83.7z"/>
		</g>
		<g>
			<path d="M238.5,81.7h1.6v1.9c1.2,0.1,2.5,0.6,4,1.7l-1.6,2.1c-1-0.7-1.8-1.1-2.4-1.2v3.7c1.4,0.4,2.5,1,3.2,1.8
				c0.7,0.8,1,1.7,1,2.7c0,1.1-0.4,2-1.1,2.8s-1.8,1.3-3.1,1.5v3.4h-1.6v-3.5c-1-0.1-1.8-0.3-2.4-0.5c-0.6-0.3-1.2-0.7-1.8-1.2
				l1.4-2.1c1.1,0.7,2,1.2,2.8,1.3v-3.5c-1.6-0.7-2.7-1.3-3.2-2c-0.5-0.7-0.8-1.6-0.8-2.6c0-1,0.3-1.9,1-2.8s1.7-1.5,3-1.6V81.7z
				 M238.4,89.4v-3.3c-0.3,0.1-0.6,0.2-0.8,0.6c-0.2,0.3-0.3,0.6-0.3,0.9C237.3,88.3,237.7,88.9,238.4,89.4z M240.1,93L240.1,93
				l0,3.2c0.9-0.2,1.3-0.6,1.3-1.4C241.4,94,241,93.4,240.1,93z"/>
			<path d="M252.1,98.5h-3.8l3.6-4.9c-0.7,0.1-1.1,0.1-1.3,0.1c-1.3,0-2.3-0.5-3.2-1.4c-0.9-0.9-1.3-2.1-1.3-3.4
				c0-1.4,0.5-2.6,1.6-3.6c1.1-1,2.4-1.4,4-1.4c1.5,0,2.7,0.5,3.7,1.5c1,1,1.4,2.2,1.4,3.8c0,1.1-0.3,2.2-0.8,3.4s-1,2-1.4,2.5
				L252.1,98.5z M253.7,89.1c0-0.6-0.2-1.2-0.7-1.6c-0.4-0.4-1-0.7-1.6-0.7c-0.6,0-1.1,0.2-1.5,0.7c-0.4,0.4-0.6,1-0.6,1.6
				c0,0.6,0.2,1.1,0.6,1.6s0.9,0.6,1.5,0.6c0.6,0,1.1-0.2,1.6-0.7C253.5,90.2,253.7,89.7,253.7,89.1z"/>
			<path d="M262.9,84.1h3.8l-3.5,4.8c0.5-0.1,0.9-0.1,1.3-0.1c1.2,0,2.3,0.5,3.2,1.4c0.9,0.9,1.3,2,1.3,3.3c0,1.5-0.5,2.7-1.6,3.7
				c-1.1,1-2.4,1.5-4,1.5c-1.5,0-2.7-0.5-3.7-1.4c-1-1-1.5-2.2-1.5-3.6c0-1.1,0.2-2.2,0.7-3.3c0.5-1.1,1-2.1,1.6-2.9L262.9,84.1z
				 M265.7,93.5c0-0.6-0.2-1.2-0.6-1.6c-0.4-0.4-0.9-0.7-1.5-0.7c-0.7,0-1.2,0.2-1.7,0.7c-0.5,0.4-0.7,1-0.7,1.6
				c0,0.6,0.2,1.2,0.7,1.6c0.4,0.4,1,0.7,1.7,0.7c0.6,0,1.1-0.2,1.5-0.7S265.7,94.1,265.7,93.5z"/>
			<path d="M275.9,83.9c1.7,0,3.1,0.7,4.1,2s1.5,3,1.5,5.2c0,2.5-0.6,4.4-1.7,5.7c-1.1,1.2-2.4,1.8-3.9,1.8c-1.7,0-3-0.7-4.1-2
				c-1-1.3-1.6-3-1.6-5.2c0-2.3,0.5-4.1,1.5-5.5C272.8,84.6,274.1,83.9,275.9,83.9L275.9,83.9z M278.4,91.4c0-1.5-0.2-2.6-0.7-3.4
				c-0.5-0.8-1.1-1.2-1.9-1.2c-0.8,0-1.5,0.4-1.9,1.2s-0.7,2-0.7,3.5c0,1.3,0.2,2.4,0.7,3.2c0.5,0.8,1.1,1.2,1.9,1.2
				c0.8,0,1.4-0.4,1.9-1.2C278.2,93.9,278.4,92.8,278.4,91.4z"/>
			<path d="M288.1,83.9c1.7,0,3.1,0.7,4.1,2s1.5,3,1.5,5.2c0,2.5-0.6,4.4-1.7,5.7c-1.1,1.2-2.4,1.8-3.9,1.8c-1.7,0-3-0.7-4.1-2
				c-1-1.3-1.6-3-1.6-5.2c0-2.3,0.5-4.1,1.5-5.5C285,84.6,286.3,83.9,288.1,83.9L288.1,83.9z M290.6,91.4c0-1.5-0.2-2.6-0.7-3.4
				c-0.5-0.8-1.1-1.2-1.9-1.2c-0.8,0-1.5,0.4-1.9,1.2s-0.7,2-0.7,3.5c0,1.3,0.2,2.4,0.7,3.2c0.5,0.8,1.1,1.2,1.9,1.2
				c0.8,0,1.4-0.4,1.9-1.2S290.6,92.8,290.6,91.4z"/>
			<path d="M300.3,83.9c1.7,0,3.1,0.7,4.1,2s1.5,3,1.5,5.2c0,2.5-0.6,4.4-1.7,5.7c-1.1,1.2-2.4,1.8-3.9,1.8c-1.7,0-3-0.7-4.1-2
				c-1-1.3-1.6-3-1.6-5.2c0-2.3,0.5-4.1,1.5-5.5C297.2,84.6,298.5,83.9,300.3,83.9L300.3,83.9z M302.9,91.4c0-1.5-0.2-2.6-0.7-3.4
				c-0.5-0.8-1.1-1.2-1.9-1.2c-0.8,0-1.5,0.4-1.9,1.2s-0.7,2-0.7,3.5c0,1.3,0.2,2.4,0.7,3.2c0.5,0.8,1.1,1.2,1.9,1.2
				c0.8,0,1.4-0.4,1.9-1.2C302.6,93.9,302.9,92.8,302.9,91.4z"/>
		</g>
		<g>
			<path d="M346,81.7h1.6v1.9c1.2,0.1,2.5,0.6,4,1.7l-1.6,2.1c-1-0.7-1.8-1.1-2.4-1.2v3.7c1.4,0.4,2.5,1,3.2,1.8
				c0.7,0.8,1,1.7,1,2.7c0,1.1-0.4,2-1.1,2.8s-1.8,1.3-3.1,1.5v3.4H346v-3.5c-1-0.1-1.8-0.3-2.4-0.5c-0.6-0.3-1.2-0.7-1.8-1.2
				l1.4-2.1c1.1,0.7,2,1.2,2.8,1.3v-3.5c-1.6-0.7-2.7-1.3-3.2-2c-0.5-0.7-0.8-1.6-0.8-2.6c0-1,0.3-1.9,1-2.8s1.7-1.5,3-1.6V81.7z
				 M345.9,89.4v-3.3c-0.3,0.1-0.6,0.2-0.8,0.6c-0.2,0.3-0.3,0.6-0.3,0.9C344.8,88.3,345.2,88.9,345.9,89.4z M347.6,93L347.6,93
				l0,3.2c0.9-0.2,1.3-0.6,1.3-1.4C348.9,94,348.5,93.4,347.6,93z"/>
			<path d="M359.7,84.1h2.9v8.3h1.4V95h-1.4v3.4h-3.1V95h-6.4v-2.7L359.7,84.1z M359.4,87.7l-3.7,4.7h3.7L359.4,87.7L359.4,87.7z"/>
			<path d="M368,84.2h4.7v14.3h-3.1V86.8h-2.1L368,84.2z"/>
			<path d="M382.6,84.1h3.8l-3.5,4.8c0.5-0.1,0.9-0.1,1.3-0.1c1.2,0,2.3,0.5,3.2,1.4s1.3,2,1.3,3.3c0,1.5-0.5,2.7-1.6,3.7
				c-1.1,1-2.4,1.5-4,1.5c-1.5,0-2.7-0.5-3.7-1.4c-1-1-1.5-2.2-1.5-3.6c0-1.1,0.2-2.2,0.7-3.3c0.5-1.1,1-2.1,1.6-2.9L382.6,84.1z
				 M385.4,93.5c0-0.6-0.2-1.2-0.6-1.6c-0.4-0.4-0.9-0.7-1.5-0.7c-0.7,0-1.2,0.2-1.7,0.7c-0.5,0.4-0.7,1-0.7,1.6
				c0,0.6,0.2,1.2,0.7,1.6c0.4,0.4,1,0.7,1.7,0.7c0.6,0,1.1-0.2,1.5-0.7C385.2,94.7,385.4,94.1,385.4,93.5z"/>
			<path d="M395.6,83.9c1.7,0,3.1,0.7,4.1,2s1.5,3,1.5,5.2c0,2.5-0.6,4.4-1.7,5.7c-1.1,1.2-2.4,1.8-3.9,1.8c-1.7,0-3-0.7-4.1-2
				c-1-1.3-1.6-3-1.6-5.2c0-2.3,0.5-4.1,1.5-5.5C392.5,84.6,393.8,83.9,395.6,83.9L395.6,83.9z M398.1,91.4c0-1.5-0.2-2.6-0.7-3.4
				c-0.5-0.8-1.1-1.2-1.9-1.2c-0.8,0-1.5,0.4-1.9,1.2s-0.7,2-0.7,3.5c0,1.3,0.2,2.4,0.7,3.2c0.5,0.8,1.1,1.2,1.9,1.2
				c0.8,0,1.4-0.4,1.9-1.2S398.1,92.8,398.1,91.4z"/>
			<path d="M407.8,83.9c1.7,0,3.1,0.7,4.1,2s1.5,3,1.5,5.2c0,2.5-0.6,4.4-1.7,5.7c-1.1,1.2-2.4,1.8-3.9,1.8c-1.7,0-3-0.7-4.1-2
				c-1-1.3-1.6-3-1.6-5.2c0-2.3,0.5-4.1,1.5-5.5C404.7,84.6,406,83.9,407.8,83.9L407.8,83.9z M410.4,91.4c0-1.5-0.2-2.6-0.7-3.4
				c-0.5-0.8-1.1-1.2-1.9-1.2c-0.8,0-1.5,0.4-1.9,1.2s-0.7,2-0.7,3.5c0,1.3,0.2,2.4,0.7,3.2c0.5,0.8,1.1,1.2,1.9,1.2
				c0.8,0,1.4-0.4,1.9-1.2C410.1,93.9,410.4,92.8,410.4,91.4z"/>
		</g>
	</g>
</g>
<g id="Capa_2" class="st2">
	<g class="st3">
		<rect x="1" y="1" class="st0" width="430" height="140"/>
		<rect x="1" y="1" class="st1" width="430" height="44"/>
		<rect x="1" y="1" class="st0" width="107.5" height="140"/>
		<rect x="108.5" y="1" class="st0" width="107.5" height="140"/>
		<rect x="216" y="1" class="st0" width="107.5" height="140"/>
		<rect x="323.5" y="1" class="st0" width="107.5" height="140"/>
		<g>
			<path d="M27.9,12.8h1.7l4.2,10.3h-2.2l-0.8-2h-3.9l-0.8,2h-2.2L27.9,12.8z M28.8,16.2l-1.2,3H30L28.8,16.2z"/>
			<path d="M35.3,12.8h2.2v4h3.6v-4h2.2v10.3h-2.2V19h-3.6v4.1h-2.2V12.8z"/>
			<path d="M45.2,18c0-1.5,0.5-2.8,1.5-3.8c1-1,2.2-1.5,3.6-1.5c1.5,0,2.8,0.5,3.8,1.5c1,1,1.5,2.2,1.5,3.8c0,1.5-0.5,2.8-1.5,3.8
				c-1,1-2.2,1.5-3.7,1.5c-1.5,0-2.7-0.5-3.7-1.5C45.7,20.8,45.2,19.5,45.2,18z M50.4,14.8c-0.9,0-1.6,0.3-2.1,0.9
				c-0.5,0.6-0.8,1.4-0.8,2.4c0,0.9,0.3,1.7,0.8,2.3c0.5,0.6,1.2,0.9,2,0.9c0.9,0,1.6-0.3,2.1-0.9c0.5-0.6,0.8-1.4,0.8-2.3
				c0-1-0.3-1.7-0.8-2.3C51.9,15.1,51.2,14.8,50.4,14.8z"/>
			<path d="M57.3,12.8h3.4c1,0,1.8,0.3,2.4,0.8c0.6,0.5,0.9,1.3,0.9,2.2c0,0.5-0.1,1.1-0.4,1.6c-0.3,0.6-0.8,1-1.5,1.3l2.9,4.3h-2.5
				l-2.7-4h-0.3v4h-2.2V12.8z M59.6,14.7v2.7H60c1.2,0,1.7-0.5,1.7-1.4c0-0.4-0.2-0.7-0.5-0.9c-0.3-0.2-0.7-0.3-1.3-0.3H59.6z"/>
			<path d="M66.7,12.8H70c1,0,1.8,0.3,2.4,0.8c0.6,0.5,0.9,1.3,0.9,2.2c0,0.5-0.1,1.1-0.4,1.6c-0.3,0.6-0.8,1-1.5,1.3l2.9,4.3h-2.5
				l-2.7-4h-0.3v4h-2.2V12.8z M68.9,14.7v2.7h0.5c1.2,0,1.7-0.5,1.7-1.4c0-0.4-0.2-0.7-0.5-0.9c-0.3-0.2-0.7-0.3-1.3-0.3H68.9z"/>
			<path d="M75,18c0-1.5,0.5-2.8,1.5-3.8c1-1,2.2-1.5,3.6-1.5c1.5,0,2.8,0.5,3.8,1.5c1,1,1.5,2.2,1.5,3.8c0,1.5-0.5,2.8-1.5,3.8
				c-1,1-2.2,1.5-3.7,1.5c-1.5,0-2.7-0.5-3.7-1.5C75.5,20.8,75,19.5,75,18z M80.2,14.8c-0.9,0-1.6,0.3-2.1,0.9
				c-0.5,0.6-0.8,1.4-0.8,2.4c0,0.9,0.3,1.7,0.8,2.3c0.5,0.6,1.2,0.9,2,0.9c0.9,0,1.6-0.3,2.1-0.9c0.5-0.6,0.8-1.4,0.8-2.3
				c0-1-0.3-1.7-0.8-2.3C81.8,15.1,81.1,14.8,80.2,14.8z"/>
			<path d="M34.5,26.8h1.7l4.2,10.3h-2.2l-0.8-2h-3.9l-0.8,2h-2.2L34.5,26.8z M35.4,30.2l-1.2,3h2.4L35.4,30.2z"/>
			<path d="M48.7,26.8h2.2v10.3h-2.2l-4.7-6.6v6.6h-2.2V26.8H44l4.7,6.6V26.8z"/>
			<path d="M53,26.8h2.2v6.3c0,0.6,0.2,1.1,0.5,1.4c0.3,0.4,0.7,0.5,1.3,0.5c0.6,0,1.1-0.2,1.4-0.5c0.3-0.4,0.5-0.9,0.5-1.5v-6.2H61
				v6.6c0,0.6-0.2,1.2-0.5,1.8c-0.3,0.6-0.8,1.1-1.4,1.4c-0.6,0.3-1.3,0.5-2.1,0.5c-1.4,0-2.4-0.4-3.1-1.2c-0.7-0.8-1-1.6-1-2.5
				V26.8z"/>
			<path d="M66.4,26.8h1.7l4.2,10.3H70l-0.8-2h-3.9l-0.8,2h-2.2L66.4,26.8z M67.2,30.2l-1.2,3h2.4L67.2,30.2z"/>
			<path d="M73.9,26.8H76v8h3v2.2h-5.2V26.8z"/>
		</g>
		<g>
			<path d="M138.6,12.8h2.2l2.6,6.8l2.6-6.8h2.2l-3.9,10.3h-1.9L138.6,12.8z"/>
			<path d="M151.9,12.8h1.7l4.2,10.3h-2.2l-0.8-2h-3.9l-0.8,2h-2.2L151.9,12.8z M152.7,16.2l-1.2,3h2.4L152.7,16.2z"/>
			<path d="M159.4,12.8h2.2v8h3v2.2h-5.2V12.8z"/>
			<path d="M165.6,18c0-1.5,0.5-2.8,1.5-3.8c1-1,2.2-1.5,3.6-1.5c1.5,0,2.8,0.5,3.8,1.5c1,1,1.5,2.2,1.5,3.8c0,1.5-0.5,2.8-1.5,3.8
				c-1,1-2.2,1.5-3.7,1.5c-1.5,0-2.7-0.5-3.7-1.5C166.1,20.8,165.6,19.5,165.6,18z M170.8,14.8c-0.9,0-1.6,0.3-2.1,0.9
				c-0.5,0.6-0.8,1.4-0.8,2.4c0,0.9,0.3,1.7,0.8,2.3c0.5,0.6,1.2,0.9,2,0.9c0.9,0,1.6-0.3,2.1-0.9c0.5-0.6,0.8-1.4,0.8-2.3
				c0-1-0.3-1.7-0.8-2.3C172.4,15.1,171.7,14.8,170.8,14.8z"/>
			<path d="M177.8,12.8h3.4c1,0,1.8,0.3,2.4,0.8c0.6,0.5,0.9,1.3,0.9,2.2c0,0.5-0.1,1.1-0.4,1.6c-0.3,0.6-0.8,1-1.5,1.3l2.9,4.3
				h-2.5l-2.7-4H180v4h-2.2V12.8z M180,14.7v2.7h0.5c1.2,0,1.7-0.5,1.7-1.4c0-0.4-0.2-0.7-0.5-0.9c-0.3-0.2-0.7-0.3-1.3-0.3H180z"/>
			<path d="M118.4,26.8h5.8v2h-3.6v2.1h3.6v2h-3.6v2.1h3.6v2h-5.8V26.8z"/>
			<path d="M134.6,35.7l1.3,1.5l-1.5,0.9l-1.2-1.4c-0.9,0.3-1.6,0.5-2.3,0.5c-1.5,0-2.8-0.5-3.7-1.5c-1-1-1.5-2.3-1.5-3.9
				c0-1.3,0.5-2.5,1.4-3.5c0.9-1,2.2-1.6,3.8-1.6c1.5,0,2.7,0.5,3.7,1.5c1,1,1.5,2.2,1.5,3.7C136.1,33.4,135.6,34.7,134.6,35.7z
				 M131.8,35l-1.1-1.3l1.5-0.9l1,1.2c0.4-0.4,0.6-1.1,0.6-2c0-1-0.3-1.8-0.8-2.4c-0.5-0.6-1.2-0.9-2.1-0.9c-0.8,0-1.5,0.3-2.1,0.9
				c-0.5,0.6-0.8,1.3-0.8,2.3c0,0.9,0.3,1.7,0.8,2.3c0.5,0.6,1.2,0.9,1.9,0.9C131,35.1,131.4,35.1,131.8,35z"/>
			<path d="M137.9,26.8h2.2v6.3c0,0.6,0.2,1.1,0.5,1.4c0.3,0.4,0.7,0.5,1.3,0.5c0.6,0,1.1-0.2,1.4-0.5c0.3-0.4,0.5-0.9,0.5-1.5v-6.2
				h2.2v6.6c0,0.6-0.2,1.2-0.5,1.8c-0.3,0.6-0.8,1.1-1.4,1.4c-0.6,0.3-1.3,0.5-2.1,0.5c-1.4,0-2.4-0.4-3.1-1.2c-0.7-0.8-1-1.6-1-2.5
				V26.8z"/>
			<path d="M148,26.8h2.2v10.3H148V26.8z"/>
			<path d="M152.3,26.8h3.5c0.9,0,1.7,0.3,2.3,0.8c0.6,0.5,0.9,1.3,0.9,2.2c0,0.6-0.1,1.1-0.4,1.7c-0.3,0.5-0.7,0.9-1.3,1.2
				c-0.6,0.3-1.1,0.4-1.5,0.4l-1.3,0v4h-2.2V26.8z M154.4,28.7v2.6h0.9c0.4,0,0.7-0.1,0.9-0.4c0.3-0.3,0.4-0.6,0.4-0.9
				c0-0.4-0.1-0.7-0.4-1c-0.3-0.2-0.7-0.3-1.3-0.3L154.4,28.7z"/>
			<path d="M160.4,32c0-1.5,0.5-2.8,1.5-3.8c1-1,2.2-1.5,3.6-1.5c1.5,0,2.8,0.5,3.8,1.5c1,1,1.5,2.2,1.5,3.8c0,1.5-0.5,2.8-1.5,3.8
				c-1,1-2.2,1.5-3.7,1.5c-1.5,0-2.7-0.5-3.7-1.5C160.9,34.8,160.4,33.5,160.4,32z M165.6,28.8c-0.9,0-1.6,0.3-2.1,0.9
				c-0.5,0.6-0.8,1.4-0.8,2.4c0,0.9,0.3,1.7,0.8,2.3c0.5,0.6,1.2,0.9,2,0.9c0.9,0,1.6-0.3,2.1-0.9c0.5-0.6,0.8-1.4,0.8-2.3
				c0-1-0.3-1.7-0.8-2.3C167.1,29.1,166.4,28.8,165.6,28.8z"/>
			<path d="M185.5,29.1l-1.5,1.4c-0.3-0.5-0.7-0.9-1.1-1.2c-0.5-0.3-0.9-0.4-1.4-0.4c-0.8,0-1.5,0.3-2.1,0.9
				c-0.6,0.6-0.9,1.3-0.9,2.2c0,0.9,0.3,1.6,0.9,2.2c0.6,0.6,1.3,0.9,2.1,0.9c0.5,0,0.9-0.1,1.3-0.3c0.4-0.2,0.8-0.7,1-1.3h-2.4v-2
				h4.7v1.3c0,0.7-0.2,1.4-0.7,2.2c-0.5,0.8-1.1,1.4-1.9,1.7c-0.8,0.4-1.5,0.5-2.3,0.5c-1.4,0-2.6-0.5-3.6-1.5c-1-1-1.5-2.3-1.5-3.8
				c0-1.4,0.5-2.7,1.5-3.7c1-1,2.2-1.5,3.6-1.5C183.2,26.7,184.6,27.5,185.5,29.1z"/>
			<path d="M194.6,26.8h2.2v10.3h-2.2l-4.7-6.6v6.6h-2.2V26.8h2.2l4.7,6.6V26.8z"/>
			<path d="M206.5,27.4v2.5c-1.1-0.7-2.1-1-2.9-1c-0.8,0-1.5,0.3-2,0.9c-0.5,0.6-0.8,1.3-0.8,2.3c0,0.9,0.3,1.6,0.8,2.2
				c0.5,0.5,1.2,0.8,2.1,0.8c0.8,0,1.7-0.3,2.8-0.9v2.5c-1.2,0.4-2.2,0.6-3,0.6c-1.4,0-2.6-0.5-3.5-1.5c-1-1-1.4-2.2-1.4-3.7
				c0-1.5,0.5-2.7,1.5-3.8c1-1,2.2-1.5,3.6-1.5C204.5,26.7,205.5,26.9,206.5,27.4z"/>
		</g>
		<g>
			<path d="M224.6,17.8h1.5l3.7,9h-1.9l-0.7-1.8h-3.4l-0.7,1.8H221L224.6,17.8z M225.4,20.8l-1.1,2.6h2.1L225.4,20.8z"/>
			<path d="M231.8,17.8h2.3l1.7,5.4l1.7-5.4h2.2l1.2,9H239l-0.8-6.3l-2,6.3h-0.9l-2-6.4l-0.7,6.4h-1.9L231.8,17.8z"/>
			<path d="M241.9,22.3c0-1.3,0.4-2.4,1.3-3.3c0.9-0.9,1.9-1.3,3.1-1.3c1.3,0,2.4,0.4,3.3,1.3c0.9,0.9,1.3,2,1.3,3.3
				c0,1.3-0.4,2.4-1.3,3.3s-1.9,1.3-3.3,1.3c-1.3,0-2.4-0.4-3.2-1.3C242.3,24.7,241.9,23.6,241.9,22.3z M246.4,19.5
				c-0.8,0-1.4,0.2-1.8,0.8c-0.5,0.5-0.7,1.2-0.7,2.1c0,0.8,0.2,1.5,0.7,2c0.5,0.5,1.1,0.8,1.8,0.8c0.8,0,1.4-0.3,1.8-0.8
				c0.5-0.5,0.7-1.2,0.7-2c0-0.8-0.2-1.5-0.7-2C247.8,19.8,247.2,19.5,246.4,19.5z"/>
			<path d="M252.6,17.8h3c0.9,0,1.6,0.2,2.1,0.7c0.5,0.5,0.8,1.1,0.8,1.9c0,0.5-0.1,0.9-0.4,1.4c-0.2,0.5-0.7,0.9-1.3,1.2l2.5,3.7
				H257l-2.3-3.5h-0.2v3.5h-1.9V17.8z M254.5,19.4v2.3h0.4c1,0,1.5-0.4,1.5-1.2c0-0.3-0.1-0.6-0.4-0.8s-0.6-0.3-1.1-0.3H254.5z"/>
			<path d="M260,17.8h6v1.9H264v7.1H262v-7.1h-2V17.8z"/>
			<path d="M267.2,17.8h1.9v9h-1.9V17.8z"/>
			<path d="M271.1,17.8h6.5l-4,7.1h3.9v1.9h-6.9l4.1-7.1h-3.5V17.8z"/>
			<path d="M282.2,17.8h1.5l3.7,9h-1.9l-0.7-1.8h-3.4l-0.7,1.8h-1.9L282.2,17.8z M283,20.8l-1.1,2.6h2.1L283,20.8z"/>
			<path d="M294.7,18.3v2.2c-1-0.6-1.8-0.9-2.5-0.9c-0.7,0-1.3,0.3-1.8,0.8s-0.7,1.2-0.7,2c0,0.8,0.2,1.4,0.7,1.9
				c0.5,0.5,1.1,0.7,1.8,0.7c0.7,0,1.5-0.3,2.4-0.8v2.2c-1.1,0.4-1.9,0.5-2.6,0.5c-1.2,0-2.2-0.4-3.1-1.3c-0.8-0.9-1.3-2-1.3-3.2
				c0-1.3,0.4-2.4,1.3-3.3c0.9-0.9,1.9-1.4,3.1-1.4C293,17.7,293.8,17.9,294.7,18.3z"/>
			<path d="M296.1,17.8h1.9v9h-1.9V17.8z"/>
			<path d="M299.5,22.3c0-1.3,0.4-2.4,1.3-3.3c0.9-0.9,1.9-1.3,3.1-1.3c1.3,0,2.4,0.4,3.3,1.3c0.9,0.9,1.3,2,1.3,3.3
				c0,1.3-0.4,2.4-1.3,3.3s-1.9,1.3-3.3,1.3c-1.3,0-2.4-0.4-3.2-1.3C300,24.7,299.5,23.6,299.5,22.3z M304.1,19.5
				c-0.8,0-1.4,0.2-1.8,0.8c-0.5,0.5-0.7,1.2-0.7,2.1c0,0.8,0.2,1.5,0.7,2c0.5,0.5,1.1,0.8,1.8,0.8c0.8,0,1.4-0.3,1.8-0.8
				c0.5-0.5,0.7-1.2,0.7-2c0-0.8-0.2-1.5-0.7-2C305.4,19.8,304.8,19.5,304.1,19.5z"/>
			<path d="M316.1,17.8h1.9v9h-1.9L312,21v5.8h-1.9v-9h1.9l4.1,5.8V17.8z"/>
		</g>
		<g>
			<path d="M361.5,12.8h2.2v10.3h-2.2l-4.7-6.6v6.6h-2.2V12.8h2.2l4.7,6.6V12.8z"/>
			<path d="M369.2,12.8h1.7l4.2,10.3h-2.2l-0.8-2h-3.9l-0.8,2h-2.2L369.2,12.8z M370.1,16.2l-1.2,3h2.4L370.1,16.2z"/>
			<path d="M376.7,12.8h5.8v2h-3.6v2.1h3.6v2h-3.6v4.2h-2.2V12.8z"/>
			<path d="M383.6,12.8h6.9V15h-2.4v8.1H386V15h-2.3V12.8z"/>
			<path d="M394.5,12.8h1.7l4.2,10.3h-2.2l-0.8-2h-3.9l-0.8,2h-2.2L394.5,12.8z M395.3,16.2l-1.2,3h2.4L395.3,16.2z"/>
			<path d="M345.8,26.8h3.5c0.9,0,1.7,0.3,2.3,0.8c0.6,0.5,0.9,1.3,0.9,2.2c0,0.6-0.1,1.1-0.4,1.7c-0.3,0.5-0.7,0.9-1.3,1.2
				c-0.6,0.3-1.1,0.4-1.5,0.4l-1.3,0v4h-2.2V26.8z M347.9,28.7v2.6h0.9c0.4,0,0.7-0.1,0.9-0.4c0.3-0.3,0.4-0.6,0.4-0.9
				c0-0.4-0.1-0.7-0.4-1c-0.3-0.2-0.7-0.3-1.3-0.3L347.9,28.7z"/>
			<path d="M354.2,26.8h3.4c1,0,1.8,0.3,2.4,0.8c0.6,0.5,0.9,1.3,0.9,2.2c0,0.5-0.1,1.1-0.4,1.6c-0.3,0.6-0.8,1-1.5,1.3l2.9,4.3
				h-2.5l-2.7-4h-0.3v4h-2.2V26.8z M356.4,28.7v2.7h0.5c1.2,0,1.7-0.5,1.7-1.4c0-0.4-0.2-0.7-0.5-0.9s-0.7-0.3-1.3-0.3H356.4z"/>
			<path d="M363.6,26.8h5.8v2h-3.6v2.1h3.6v2h-3.6v2.1h3.6v2h-5.8V26.8z"/>
			<path d="M371.9,26.8h2.6l1.9,6.1l1.9-6.1h2.5l1.3,10.3h-2.1l-0.9-7.2l-2.3,7.2h-1l-2.3-7.3l-0.9,7.3h-2.1L371.9,26.8z"/>
			<path d="M383.8,26.8h2.2v10.3h-2.2V26.8z"/>
			<path d="M388,26.8h2.2v6.3c0,0.6,0.2,1.1,0.5,1.4c0.3,0.4,0.7,0.5,1.3,0.5c0.6,0,1.1-0.2,1.4-0.5c0.3-0.4,0.5-0.9,0.5-1.5v-6.2
				h2.2v6.6c0,0.6-0.2,1.2-0.5,1.8c-0.3,0.6-0.8,1.1-1.4,1.4c-0.6,0.3-1.3,0.5-2.1,0.5c-1.4,0-2.4-0.4-3.1-1.2c-0.7-0.8-1-1.6-1-2.5
				V26.8z"/>
			<path d="M398.9,26.8h2.6l1.9,6.1l1.9-6.1h2.5l1.3,10.3h-2.1l-0.9-7.2l-2.3,7.2h-1l-2.3-7.3l-0.9,7.3h-2.1L398.9,26.8z"/>
		</g>
		<g>
			<path d="M23.5,81.7h1.6v1.9c1.2,0.1,2.5,0.6,4,1.7l-1.6,2.1c-1-0.7-1.8-1.1-2.4-1.2v3.7c1.4,0.4,2.5,1,3.2,1.8
				c0.7,0.8,1,1.7,1,2.7c0,1.1-0.4,2-1.1,2.8c-0.7,0.8-1.8,1.3-3.1,1.5v3.4h-1.6v-3.5c-1-0.1-1.8-0.3-2.4-0.5
				c-0.6-0.3-1.2-0.7-1.8-1.2l1.4-2.1c1.1,0.7,2,1.2,2.8,1.3v-3.5c-1.6-0.7-2.7-1.3-3.2-2c-0.5-0.7-0.8-1.6-0.8-2.6
				c0-1,0.3-1.9,1-2.8s1.7-1.5,3-1.6V81.7z M23.4,89.4v-3.3c-0.3,0.1-0.6,0.2-0.8,0.6c-0.2,0.3-0.3,0.6-0.3,0.9
				C22.3,88.3,22.7,88.9,23.4,89.4z M25.1,93L25.1,93l0,3.2c0.9-0.2,1.3-0.6,1.3-1.4C26.4,94,26,93.4,25.1,93z"/>
			<path d="M33.5,84.1h7.1v2.6h-4.3l-0.2,1.7c1.6,0,2.9,0.5,3.8,1.4c0.9,1,1.3,2.1,1.3,3.4c0,1.5-0.6,2.7-1.7,3.8
				c-1.1,1.1-2.5,1.6-4,1.6c-0.7,0-1.4-0.1-1.9-0.3c-0.6-0.2-1.2-0.5-1.9-1l0.3-3.3c1.6,1,2.8,1.6,3.7,1.6c0.6,0,1.2-0.2,1.7-0.7
				c0.5-0.5,0.7-1,0.7-1.6c0-0.7-0.2-1.3-0.7-1.7c-0.5-0.5-1.1-0.7-1.8-0.7c-0.9,0-1.8,0.2-2.8,0.6L33.5,84.1z"/>
			<path d="M49.4,84.1h2.9v8.3h1.4V95h-1.4v3.4h-3.1V95h-6.4v-2.7L49.4,84.1z M49.1,87.7l-3.7,4.7h3.7L49.1,87.7L49.1,87.7z"/>
			<path d="M61.6,84.1h2.9v8.3h1.4V95h-1.4v3.4h-3.1V95H55v-2.7L61.6,84.1z M61.4,87.7l-3.7,4.7h3.7L61.4,87.7L61.4,87.7z"/>
			<path d="M73.1,83.9c1.7,0,3.1,0.7,4.1,2s1.5,3,1.5,5.2c0,2.5-0.6,4.4-1.7,5.7c-1.1,1.2-2.4,1.8-3.9,1.8c-1.7,0-3-0.7-4.1-2
				c-1-1.3-1.6-3-1.6-5.2c0-2.3,0.5-4.1,1.5-5.5C70,84.6,71.3,83.9,73.1,83.9L73.1,83.9z M75.6,91.4c0-1.5-0.2-2.6-0.7-3.4
				s-1.1-1.2-1.9-1.2c-0.8,0-1.5,0.4-1.9,1.2s-0.7,2-0.7,3.5c0,1.3,0.2,2.4,0.7,3.2s1.1,1.2,1.9,1.2c0.8,0,1.4-0.4,1.9-1.2
				C75.4,93.9,75.6,92.8,75.6,91.4z"/>
			<path d="M85.3,83.9c1.7,0,3.1,0.7,4.1,2s1.5,3,1.5,5.2c0,2.5-0.6,4.4-1.7,5.7c-1.1,1.2-2.4,1.8-3.9,1.8c-1.7,0-3-0.7-4.1-2
				c-1-1.3-1.6-3-1.6-5.2c0-2.3,0.5-4.1,1.5-5.5C82.2,84.6,83.5,83.9,85.3,83.9L85.3,83.9z M87.9,91.4c0-1.5-0.2-2.6-0.7-3.4
				s-1.1-1.2-1.9-1.2c-0.8,0-1.5,0.4-1.9,1.2s-0.7,2-0.7,3.5c0,1.3,0.2,2.4,0.7,3.2s1.1,1.2,1.9,1.2c0.8,0,1.4-0.4,1.9-1.2
				C87.6,93.9,87.9,92.8,87.9,91.4z"/>
		</g>
		<g>
			<path d="M131,81.7h1.6v1.9c1.2,0.1,2.5,0.6,4,1.7l-1.6,2.1c-1-0.7-1.8-1.1-2.4-1.2v3.7c1.4,0.4,2.5,1,3.2,1.8
				c0.7,0.8,1,1.7,1,2.7c0,1.1-0.4,2-1.1,2.8c-0.7,0.8-1.8,1.3-3.1,1.5v3.4H131v-3.5c-1-0.1-1.8-0.3-2.4-0.5
				c-0.6-0.3-1.2-0.7-1.8-1.2l1.4-2.1c1.1,0.7,2,1.2,2.8,1.3v-3.5c-1.6-0.7-2.7-1.3-3.2-2c-0.5-0.7-0.8-1.6-0.8-2.6
				c0-1,0.3-1.9,1-2.8s1.7-1.5,3-1.6V81.7z M130.9,89.4v-3.3c-0.3,0.1-0.6,0.2-0.8,0.6c-0.2,0.3-0.3,0.6-0.3,0.9
				C129.8,88.3,130.2,88.9,130.9,89.4z M132.6,93L132.6,93l0,3.2c0.9-0.2,1.3-0.6,1.3-1.4C133.9,94,133.5,93.4,132.6,93z"/>
			<path d="M141,84.1h7.1v2.6h-4.3l-0.2,1.7c1.6,0,2.9,0.5,3.8,1.4c0.9,1,1.3,2.1,1.3,3.4c0,1.5-0.6,2.7-1.7,3.8
				c-1.1,1.1-2.5,1.6-4,1.6c-0.7,0-1.4-0.1-1.9-0.3c-0.6-0.2-1.2-0.5-1.9-1l0.3-3.3c1.6,1,2.8,1.6,3.7,1.6c0.6,0,1.2-0.2,1.7-0.7
				c0.5-0.5,0.7-1,0.7-1.6c0-0.7-0.2-1.3-0.7-1.7c-0.5-0.5-1.1-0.7-1.8-0.7c-0.9,0-1.8,0.2-2.8,0.6L141,84.1z"/>
			<path d="M156.2,83.9c1.7,0,3.1,0.7,4.1,2s1.5,3,1.5,5.2c0,2.5-0.6,4.4-1.7,5.7c-1.1,1.2-2.4,1.8-3.9,1.8c-1.7,0-3-0.7-4.1-2
				c-1-1.3-1.6-3-1.6-5.2c0-2.3,0.5-4.1,1.5-5.5C153.1,84.6,154.4,83.9,156.2,83.9L156.2,83.9z M158.7,91.4c0-1.5-0.2-2.6-0.7-3.4
				s-1.1-1.2-1.9-1.2c-0.8,0-1.5,0.4-1.9,1.2s-0.7,2-0.7,3.5c0,1.3,0.2,2.4,0.7,3.2s1.1,1.2,1.9,1.2c0.8,0,1.4-0.4,1.9-1.2
				C158.5,93.9,158.7,92.8,158.7,91.4z"/>
			<path d="M168.4,83.9c1.7,0,3.1,0.7,4.1,2s1.5,3,1.5,5.2c0,2.5-0.6,4.4-1.7,5.7c-1.1,1.2-2.4,1.8-3.9,1.8c-1.7,0-3-0.7-4.1-2
				c-1-1.3-1.6-3-1.6-5.2c0-2.3,0.5-4.1,1.5-5.5C165.3,84.6,166.6,83.9,168.4,83.9L168.4,83.9z M170.9,91.4c0-1.5-0.2-2.6-0.7-3.4
				s-1.1-1.2-1.9-1.2c-0.8,0-1.5,0.4-1.9,1.2s-0.7,2-0.7,3.5c0,1.3,0.2,2.4,0.7,3.2s1.1,1.2,1.9,1.2c0.8,0,1.4-0.4,1.9-1.2
				C170.7,93.9,170.9,92.8,170.9,91.4z"/>
			<path d="M180.6,83.9c1.7,0,3.1,0.7,4.1,2s1.5,3,1.5,5.2c0,2.5-0.6,4.4-1.7,5.7c-1.1,1.2-2.4,1.8-3.9,1.8c-1.7,0-3-0.7-4.1-2
				c-1-1.3-1.6-3-1.6-5.2c0-2.3,0.5-4.1,1.5-5.5C177.5,84.6,178.8,83.9,180.6,83.9L180.6,83.9z M183.1,91.4c0-1.5-0.2-2.6-0.7-3.4
				s-1.1-1.2-1.9-1.2c-0.8,0-1.5,0.4-1.9,1.2s-0.7,2-0.7,3.5c0,1.3,0.2,2.4,0.7,3.2s1.1,1.2,1.9,1.2c0.8,0,1.4-0.4,1.9-1.2
				C182.9,93.9,183.1,92.8,183.1,91.4z"/>
			<path d="M192.8,83.9c1.7,0,3.1,0.7,4.1,2s1.5,3,1.5,5.2c0,2.5-0.6,4.4-1.7,5.7c-1.1,1.2-2.4,1.8-3.9,1.8c-1.7,0-3-0.7-4.1-2
				c-1-1.3-1.6-3-1.6-5.2c0-2.3,0.5-4.1,1.5-5.5C189.7,84.6,191,83.9,192.8,83.9L192.8,83.9z M195.4,91.4c0-1.5-0.2-2.6-0.7-3.4
				s-1.1-1.2-1.9-1.2c-0.8,0-1.5,0.4-1.9,1.2s-0.7,2-0.7,3.5c0,1.3,0.2,2.4,0.7,3.2s1.1,1.2,1.9,1.2c0.8,0,1.4-0.4,1.9-1.2
				C195.1,93.9,195.4,92.8,195.4,91.4z"/>
		</g>
		<g>
			<path d="M226.4,84.2h4.7v14.3h-3.1V86.8h-2.1L226.4,84.2z"/>
			<path d="M242.7,95.8h4.1v2.7h-10l4.9-6.2c0.7-0.9,1.2-1.7,1.5-2.2c0.3-0.6,0.5-1.1,0.5-1.6c0-0.6-0.2-1-0.5-1.4s-0.8-0.5-1.4-0.5
				c-0.6,0-1.1,0.2-1.4,0.7c-0.3,0.5-0.5,1.2-0.5,2.1h-3.2c0-1.7,0.5-3.1,1.5-4c1-1,2.3-1.4,3.8-1.4c1.4,0,2.6,0.4,3.4,1.2
				c0.9,0.8,1.3,1.9,1.3,3.2c0,1.3-0.5,2.6-1.6,4.2l-0.9,1.2c-0.3,0.5-0.8,1.1-1.3,1.7L242.7,95.8z"/>
			<path d="M256.5,83.7h3.8l2.8,8.8l2.8-8.8h3.6l1.9,14.7h-3L267,88.1l-3.2,10.4h-1.4L259,88l-1.2,10.5h-3.1L256.5,83.7z"/>
			<path d="M273.7,83.7h8.3v2.9h-5.1v3h5.1v2.9h-5.1v3.1h5.1v2.9h-8.3V83.7z"/>
			<path d="M292.9,85.1l-2,2.2c-1-0.6-1.8-0.9-2.2-0.9c-0.4,0-0.7,0.1-0.9,0.4c-0.3,0.3-0.4,0.6-0.4,0.9c0,0.7,0.7,1.4,2,1.9
				c1,0.4,1.7,0.8,2.2,1.1s0.9,0.8,1.2,1.4c0.3,0.6,0.5,1.2,0.5,1.9c0,1.3-0.5,2.4-1.5,3.3c-1,0.9-2.2,1.4-3.6,1.4
				c-1.5,0-3-0.7-4.5-2.2l2.1-2.4c0.9,1,1.8,1.4,2.6,1.4c0.4,0,0.7-0.2,1.1-0.5c0.4-0.3,0.5-0.7,0.5-1.1c0-0.8-0.8-1.4-2.4-2
				c-0.9-0.3-1.6-0.7-2-1c-0.4-0.3-0.7-0.7-1-1.3c-0.3-0.6-0.4-1.1-0.4-1.7c0-1.3,0.4-2.4,1.3-3.2c0.9-0.8,2-1.2,3.3-1.2
				C290.5,83.5,291.8,84,292.9,85.1z"/>
			<path d="M295.6,83.7h8.3v2.9h-5.1v3h5.1v2.9h-5.1v3.1h5.1v2.9h-8.3V83.7z"/>
			<path d="M314.9,85.1l-2,2.2c-1-0.6-1.8-0.9-2.2-0.9c-0.4,0-0.7,0.1-0.9,0.4c-0.3,0.3-0.4,0.6-0.4,0.9c0,0.7,0.7,1.4,2,1.9
				c1,0.4,1.7,0.8,2.2,1.1s0.9,0.8,1.2,1.4c0.3,0.6,0.5,1.2,0.5,1.9c0,1.3-0.5,2.4-1.5,3.3c-1,0.9-2.2,1.4-3.6,1.4
				c-1.5,0-3-0.7-4.5-2.2l2.1-2.4c0.9,1,1.8,1.4,2.6,1.4c0.4,0,0.7-0.2,1.1-0.5c0.4-0.3,0.5-0.7,0.5-1.1c0-0.8-0.8-1.4-2.4-2
				c-0.9-0.3-1.6-0.7-2-1c-0.4-0.3-0.7-0.7-1-1.3c-0.3-0.6-0.4-1.1-0.4-1.7c0-1.3,0.4-2.4,1.3-3.2c0.9-0.8,2-1.2,3.3-1.2
				C312.4,83.5,313.8,84,314.9,85.1z"/>
		</g>
		<g>
			<path d="M345.8,90.9c1.4,0.9,2.1,2.1,2.1,3.6c0,1.2-0.4,2.2-1.3,3c-0.9,0.8-2,1.2-3.5,1.2c-1.5,0-2.6-0.4-3.5-1.1
				c-0.9-0.8-1.3-1.8-1.3-3c0-1.5,0.7-2.7,2.1-3.6c-0.6-0.5-1-1-1.3-1.5c-0.3-0.5-0.4-1.1-0.4-1.7c0-1,0.4-1.9,1.2-2.7
				c0.8-0.8,1.9-1.1,3.3-1.1c1.4,0,2.5,0.3,3.3,1c0.8,0.7,1.2,1.6,1.2,2.7C347.6,89,347,90,345.8,90.9z M344.9,94.1
				c0-0.5-0.2-0.9-0.5-1.3c-0.4-0.4-0.8-0.5-1.3-0.5c-0.5,0-0.9,0.2-1.2,0.6c-0.3,0.4-0.5,0.8-0.5,1.3c0,0.5,0.2,0.9,0.5,1.3
				c0.4,0.4,0.8,0.6,1.2,0.6c0.5,0,0.9-0.2,1.3-0.6C344.7,95,344.9,94.6,344.9,94.1z M344.6,88.1c0-0.5-0.1-0.9-0.4-1.2
				c-0.3-0.3-0.6-0.5-1.1-0.5c-0.4,0-0.8,0.1-1.1,0.4c-0.3,0.3-0.4,0.6-0.4,1.1c0,0.4,0.1,0.8,0.4,1.1c0.3,0.3,0.6,0.4,1.1,0.4
				c0.4,0,0.7-0.1,1-0.4S344.6,88.5,344.6,88.1z"/>
			<path d="M357.9,83.7h3.8l2.8,8.8l2.8-8.8h3.6l1.9,14.7h-3l-1.3-10.4l-3.2,10.4h-1.4L360.4,88l-1.2,10.5h-3.1L357.9,83.7z"/>
			<path d="M375.1,83.7h8.3v2.9h-5.1v3h5.1v2.9h-5.1v3.1h5.1v2.9h-8.3V83.7z"/>
			<path d="M394.3,85.1l-2,2.2c-1-0.6-1.8-0.9-2.2-0.9c-0.4,0-0.7,0.1-0.9,0.4c-0.3,0.3-0.4,0.6-0.4,0.9c0,0.7,0.7,1.4,2,1.9
				c1,0.4,1.7,0.8,2.2,1.1s0.9,0.8,1.2,1.4c0.3,0.6,0.5,1.2,0.5,1.9c0,1.3-0.5,2.4-1.5,3.3c-1,0.9-2.2,1.4-3.6,1.4
				c-1.5,0-3-0.7-4.5-2.2l2.1-2.4c0.9,1,1.8,1.4,2.6,1.4c0.4,0,0.7-0.2,1.1-0.5c0.4-0.3,0.5-0.7,0.5-1.1c0-0.8-0.8-1.4-2.4-2
				c-0.9-0.3-1.6-0.7-2-1c-0.4-0.3-0.7-0.7-1-1.3s-0.4-1.1-0.4-1.7c0-1.3,0.4-2.4,1.3-3.2c0.9-0.8,2-1.2,3.3-1.2
				C391.9,83.5,393.2,84,394.3,85.1z"/>
			<path d="M397,83.7h8.3v2.9h-5.1v3h5.1v2.9h-5.1v3.1h5.1v2.9H397V83.7z"/>
			<path d="M416.3,85.1l-2,2.2c-1-0.6-1.8-0.9-2.2-0.9c-0.4,0-0.7,0.1-0.9,0.4c-0.3,0.3-0.4,0.6-0.4,0.9c0,0.7,0.7,1.4,2,1.9
				c1,0.4,1.7,0.8,2.2,1.1s0.9,0.8,1.2,1.4c0.3,0.6,0.5,1.2,0.5,1.9c0,1.3-0.5,2.4-1.5,3.3c-1,0.9-2.2,1.4-3.6,1.4
				c-1.5,0-3-0.7-4.5-2.2l2.1-2.4c0.9,1,1.8,1.4,2.6,1.4c0.4,0,0.7-0.2,1.1-0.5c0.4-0.3,0.5-0.7,0.5-1.1c0-0.8-0.8-1.4-2.4-2
				c-0.9-0.3-1.6-0.7-2-1c-0.4-0.3-0.7-0.7-1-1.3s-0.4-1.1-0.4-1.7c0-1.3,0.4-2.4,1.3-3.2c0.9-0.8,2-1.2,3.3-1.2
				C413.8,83.5,415.2,84,416.3,85.1z"/>
		</g>
	</g>
</g>
</svg>
