<?xml version="1.0" encoding="utf-8"?>
<!-- Generator: Adobe Illustrator 21.1.0, SVG Export Plug-In . SVG Version: 6.00 Build 0)  -->
<svg version="1.1" id="Capa_1" xmlns="http://www.w3.org/2000/svg" xmlns:xlink="http://www.w3.org/1999/xlink" x="0px" y="0px"
	 viewBox="0 0 432 142" style="enable-background:new 0 0 432 142;" xml:space="preserve">
<style type="text/css">
	.st0{fill:none;stroke:#21A751;stroke-width:2;stroke-miterlimit:10;}
	.st1{fill:#F4E72B;stroke:#21A751;stroke-width:2;stroke-miterlimit:10;}
	.st2{fill:none;}
	.st3{enable-background:new    ;}
</style>
<g id="LINEAS_1_">
	<rect x="1" y="1" class="st0" width="430" height="140"/>
	<rect x="1" y="1" class="st1" width="430" height="44"/>
	<rect x="1" y="1" class="st0" width="107.5" height="140"/>
	<rect x="108.5" y="1" class="st0" width="107.5" height="140"/>
	<rect x="216" y="1" class="st0" width="107.5" height="140"/>
	<rect x="323.5" y="1" class="st0" width="107.5" height="140"/>
</g>
<rect x="1" y="12.7" class="st2" width="107.5" height="32.3"/>
<g class="st3">
	<path d="M27.6,12.8h1.7l4.2,10.3h-2.2l-0.8-2h-3.9l-0.8,2h-2.2L27.6,12.8z M28.5,16.2l-1.2,3h2.4L28.5,16.2z"/>
	<path d="M35,12.8h2.2v4h3.6v-4h2.2v10.3h-2.2V19h-3.6v4.1H35V12.8z"/>
	<path d="M44.9,18c0-1.5,0.5-2.8,1.5-3.8c1-1,2.2-1.5,3.6-1.5c1.5,0,2.8,0.5,3.8,1.5c1,1,1.5,2.2,1.5,3.8c0,1.5-0.5,2.8-1.5,3.8
		s-2.2,1.5-3.7,1.5c-1.5,0-2.7-0.5-3.7-1.5C45.3,20.8,44.9,19.5,44.9,18z M50,14.8c-0.9,0-1.6,0.3-2.1,0.9c-0.5,0.6-0.8,1.4-0.8,2.4
		c0,0.9,0.3,1.7,0.8,2.3c0.5,0.6,1.2,0.9,2,0.9c0.9,0,1.6-0.3,2.1-0.9c0.5-0.6,0.8-1.4,0.8-2.3c0-1-0.3-1.7-0.8-2.3
		C51.6,15.1,50.9,14.8,50,14.8z"/>
	<path d="M57,12.8h3.4c1,0,1.8,0.3,2.4,0.8c0.6,0.5,0.9,1.3,0.9,2.2c0,0.5-0.1,1.1-0.4,1.6c-0.3,0.6-0.8,1-1.5,1.3l2.9,4.3h-2.5
		l-2.7-4h-0.3v4H57V12.8z M59.2,14.7v2.7h0.5c1.2,0,1.7-0.5,1.7-1.4c0-0.4-0.2-0.7-0.5-0.9c-0.3-0.2-0.7-0.3-1.3-0.3H59.2z"/>
	<path d="M66.3,12.8h3.4c1,0,1.8,0.3,2.4,0.8c0.6,0.5,0.9,1.3,0.9,2.2c0,0.5-0.1,1.1-0.4,1.6c-0.3,0.6-0.8,1-1.5,1.3l2.9,4.3h-2.5
		l-2.7-4h-0.3v4h-2.2V12.8z M68.6,14.7v2.7h0.5c1.2,0,1.7-0.5,1.7-1.4c0-0.4-0.2-0.7-0.5-0.9c-0.3-0.2-0.7-0.3-1.3-0.3H68.6z"/>
	<path d="M74.7,18c0-1.5,0.5-2.8,1.5-3.8c1-1,2.2-1.5,3.6-1.5c1.5,0,2.8,0.5,3.8,1.5c1,1,1.5,2.2,1.5,3.8c0,1.5-0.5,2.8-1.5,3.8
		s-2.2,1.5-3.7,1.5c-1.5,0-2.7-0.5-3.7-1.5C75.2,20.8,74.7,19.5,74.7,18z M79.9,14.8c-0.9,0-1.6,0.3-2.1,0.9
		C77.3,16.3,77,17.1,77,18c0,0.9,0.3,1.7,0.8,2.3c0.5,0.6,1.2,0.9,2,0.9c0.9,0,1.6-0.3,2.1-0.9c0.5-0.6,0.8-1.4,0.8-2.3
		c0-1-0.3-1.7-0.8-2.3C81.4,15.1,80.8,14.8,79.9,14.8z"/>
</g>
<g class="st3">
	<path d="M34.4,26.8h1.7l4.2,10.3h-2.2l-0.8-2h-3.9l-0.8,2h-2.2L34.4,26.8z M35.3,30.2l-1.2,3h2.4L35.3,30.2z"/>
	<path d="M48.6,26.8h2.2v10.3h-2.2l-4.7-6.6v6.6h-2.2V26.8h2.2l4.7,6.6V26.8z"/>
	<path d="M52.9,26.8H55v6.3c0,0.6,0.2,1.1,0.5,1.4c0.3,0.4,0.7,0.5,1.3,0.5c0.6,0,1.1-0.2,1.4-0.5c0.3-0.4,0.5-0.9,0.5-1.5v-6.2h2.2
		v6.6c0,0.6-0.2,1.2-0.5,1.8c-0.3,0.6-0.8,1.1-1.4,1.4c-0.6,0.3-1.3,0.5-2.1,0.5c-1.4,0-2.4-0.4-3.1-1.2c-0.7-0.8-1-1.6-1-2.5V26.8z
		"/>
	<path d="M66.2,26.8H68l4.2,10.3h-2.2l-0.8-2h-3.9l-0.8,2h-2.2L66.2,26.8z M67.1,30.2l-1.2,3h2.4L67.1,30.2z"/>
	<path d="M73.7,26.8h2.2v8h3v2.2h-5.2V26.8z"/>
</g>
<rect x="108.5" y="12.7" class="st2" width="107.5" height="32.3"/>
<g class="st3">
	<path d="M137.9,12.8h2.2l2.6,6.8l2.6-6.8h2.2l-3.9,10.3h-1.9L137.9,12.8z"/>
	<path d="M151.1,12.8h1.7l4.2,10.3h-2.2l-0.8-2h-3.9l-0.8,2H147L151.1,12.8z M152,16.2l-1.2,3h2.4L152,16.2z"/>
	<path d="M158.6,12.8h2.2v8h3v2.2h-5.2V12.8z"/>
	<path d="M164.9,18c0-1.5,0.5-2.8,1.5-3.8c1-1,2.2-1.5,3.6-1.5c1.5,0,2.8,0.5,3.8,1.5c1,1,1.5,2.2,1.5,3.8c0,1.5-0.5,2.8-1.5,3.8
		s-2.2,1.5-3.7,1.5c-1.5,0-2.7-0.5-3.7-1.5C165.4,20.8,164.9,19.5,164.9,18z M170.1,14.8c-0.9,0-1.6,0.3-2.1,0.9
		c-0.5,0.6-0.8,1.4-0.8,2.4c0,0.9,0.3,1.7,0.8,2.3c0.5,0.6,1.2,0.9,2,0.9c0.9,0,1.6-0.3,2.1-0.9c0.5-0.6,0.8-1.4,0.8-2.3
		c0-1-0.3-1.7-0.8-2.3C171.6,15.1,171,14.8,170.1,14.8z"/>
	<path d="M177.1,12.8h3.4c1,0,1.8,0.3,2.4,0.8c0.6,0.5,0.9,1.3,0.9,2.2c0,0.5-0.1,1.1-0.4,1.6c-0.3,0.6-0.8,1-1.5,1.3l2.9,4.3h-2.5
		l-2.7-4h-0.3v4h-2.2V12.8z M179.3,14.7v2.7h0.5c1.2,0,1.7-0.5,1.7-1.4c0-0.4-0.2-0.7-0.5-0.9c-0.3-0.2-0.7-0.3-1.3-0.3H179.3z"/>
</g>
<g class="st3">
	<path d="M118.4,26.8h5.8v2h-3.6v2.1h3.6v2h-3.6v2.1h3.6v2h-5.8V26.8z"/>
	<path d="M134.6,35.7l1.3,1.5l-1.5,0.9l-1.2-1.4c-0.9,0.3-1.6,0.5-2.3,0.5c-1.5,0-2.8-0.5-3.7-1.5c-1-1-1.5-2.3-1.5-3.9
		c0-1.3,0.5-2.5,1.4-3.5s2.2-1.6,3.8-1.6c1.5,0,2.7,0.5,3.7,1.5c1,1,1.5,2.2,1.5,3.7C136.1,33.4,135.6,34.7,134.6,35.7z M131.8,35
		l-1.1-1.3l1.5-0.9l1,1.2c0.4-0.4,0.6-1.1,0.6-2c0-1-0.3-1.8-0.8-2.4c-0.5-0.6-1.2-0.9-2.1-0.9c-0.8,0-1.5,0.3-2.1,0.9
		s-0.8,1.3-0.8,2.3c0,0.9,0.3,1.7,0.8,2.3c0.5,0.6,1.2,0.9,1.9,0.9C131,35.1,131.4,35.1,131.8,35z"/>
	<path d="M137.9,26.8h2.2v6.3c0,0.6,0.2,1.1,0.5,1.4c0.3,0.4,0.7,0.5,1.3,0.5c0.6,0,1.1-0.2,1.4-0.5c0.3-0.4,0.5-0.9,0.5-1.5v-6.2
		h2.2v6.6c0,0.6-0.2,1.2-0.5,1.8c-0.3,0.6-0.8,1.1-1.4,1.4c-0.6,0.3-1.3,0.5-2.1,0.5c-1.4,0-2.4-0.4-3.1-1.2c-0.7-0.8-1-1.6-1-2.5
		V26.8z"/>
	<path d="M148,26.8h2.2v10.3H148V26.8z"/>
	<path d="M152.3,26.8h3.5c0.9,0,1.7,0.3,2.3,0.8s0.9,1.3,0.9,2.2c0,0.6-0.1,1.1-0.4,1.7c-0.3,0.5-0.7,0.9-1.3,1.2
		c-0.6,0.3-1.1,0.4-1.5,0.4l-1.3,0v4h-2.2V26.8z M154.4,28.7v2.6h0.9c0.4,0,0.7-0.1,0.9-0.4c0.3-0.3,0.4-0.6,0.4-0.9
		c0-0.4-0.1-0.7-0.4-1s-0.7-0.3-1.3-0.3L154.4,28.7z"/>
	<path d="M160.4,32c0-1.5,0.5-2.8,1.5-3.8c1-1,2.2-1.5,3.6-1.5c1.5,0,2.8,0.5,3.8,1.5c1,1,1.5,2.2,1.5,3.8c0,1.5-0.5,2.8-1.5,3.8
		s-2.2,1.5-3.7,1.5c-1.5,0-2.7-0.5-3.7-1.5C160.9,34.8,160.4,33.5,160.4,32z M165.6,28.8c-0.9,0-1.6,0.3-2.1,0.9
		c-0.5,0.6-0.8,1.4-0.8,2.4c0,0.9,0.3,1.7,0.8,2.3c0.5,0.6,1.2,0.9,2,0.9c0.9,0,1.6-0.3,2.1-0.9c0.5-0.6,0.8-1.4,0.8-2.3
		c0-1-0.3-1.7-0.8-2.3C167.1,29.1,166.4,28.8,165.6,28.8z"/>
	<path d="M185.5,29.1l-1.5,1.4c-0.3-0.5-0.7-0.9-1.1-1.2s-0.9-0.4-1.4-0.4c-0.8,0-1.5,0.3-2.1,0.9c-0.6,0.6-0.9,1.3-0.9,2.2
		c0,0.9,0.3,1.6,0.9,2.2c0.6,0.6,1.3,0.9,2.1,0.9c0.5,0,0.9-0.1,1.3-0.3c0.4-0.2,0.8-0.7,1-1.3h-2.4v-2h4.7v1.3
		c0,0.7-0.2,1.4-0.7,2.2s-1.1,1.4-1.9,1.7s-1.5,0.5-2.3,0.5c-1.4,0-2.6-0.5-3.6-1.5c-1-1-1.5-2.3-1.5-3.8c0-1.4,0.5-2.7,1.5-3.7
		c1-1,2.2-1.5,3.6-1.5C183.2,26.7,184.6,27.5,185.5,29.1z"/>
	<path d="M194.6,26.8h2.2v10.3h-2.2l-4.7-6.6v6.6h-2.2V26.8h2.2l4.7,6.6V26.8z"/>
	<path d="M206.5,27.4v2.5c-1.1-0.7-2.1-1-2.9-1c-0.8,0-1.5,0.3-2,0.9s-0.8,1.3-0.8,2.3c0,0.9,0.3,1.6,0.8,2.2
		c0.5,0.5,1.2,0.8,2.1,0.8c0.8,0,1.7-0.3,2.8-0.9v2.5c-1.2,0.4-2.2,0.6-3,0.6c-1.4,0-2.6-0.5-3.5-1.5c-1-1-1.4-2.2-1.4-3.7
		c0-1.5,0.5-2.7,1.5-3.8c1-1,2.2-1.5,3.6-1.5C204.5,26.7,205.5,26.9,206.5,27.4z"/>
</g>
<rect x="216" y="17.7" class="st2" width="107.5" height="32.3"/>
<g class="st3">
	<path d="M224.2,17.8h1.5l3.7,9h-1.9l-0.7-1.8h-3.4l-0.7,1.8h-1.9L224.2,17.8z M224.9,20.8l-1.1,2.6h2.1L224.9,20.8z"/>
	<path d="M231.3,17.8h2.3l1.7,5.4l1.7-5.4h2.2l1.2,9h-1.8l-0.8-6.3l-2,6.3h-0.9l-2-6.4l-0.7,6.4h-1.9L231.3,17.8z"/>
	<path d="M241.5,22.3c0-1.3,0.4-2.4,1.3-3.3c0.9-0.9,1.9-1.3,3.1-1.3c1.3,0,2.4,0.4,3.3,1.3c0.9,0.9,1.3,2,1.3,3.3
		c0,1.3-0.4,2.4-1.3,3.3s-1.9,1.3-3.3,1.3c-1.3,0-2.4-0.4-3.2-1.3C241.9,24.7,241.5,23.6,241.5,22.3z M246,19.5
		c-0.8,0-1.4,0.2-1.8,0.8c-0.5,0.5-0.7,1.2-0.7,2.1c0,0.8,0.2,1.5,0.7,2c0.5,0.5,1.1,0.8,1.8,0.8c0.8,0,1.4-0.3,1.8-0.8
		c0.5-0.5,0.7-1.2,0.7-2c0-0.8-0.2-1.5-0.7-2C247.4,19.8,246.8,19.5,246,19.5z"/>
	<path d="M252.1,17.8h3c0.9,0,1.6,0.2,2.1,0.7s0.8,1.1,0.8,1.9c0,0.5-0.1,0.9-0.4,1.4c-0.2,0.5-0.7,0.9-1.3,1.2l2.5,3.7h-2.2
		l-2.3-3.5h-0.2v3.5h-1.9V17.8z M254.1,19.4v2.3h0.4c1,0,1.5-0.4,1.5-1.2c0-0.3-0.1-0.6-0.4-0.8c-0.3-0.2-0.6-0.3-1.1-0.3H254.1z"/>
	<path d="M259.6,17.8h6v1.9h-2.1v7.1h-1.9v-7.1h-2V17.8z"/>
	<path d="M266.8,17.8h1.9v9h-1.9V17.8z"/>
	<path d="M270.6,17.8h6.5l-4,7.1h3.9v1.9h-6.9l4.1-7.1h-3.5V17.8z"/>
	<path d="M281.8,17.8h1.5l3.7,9H285l-0.7-1.8h-3.4l-0.7,1.8h-1.9L281.8,17.8z M282.5,20.8l-1.1,2.6h2.1L282.5,20.8z"/>
	<path d="M294.3,18.3v2.2c-1-0.6-1.8-0.9-2.5-0.9c-0.7,0-1.3,0.3-1.8,0.8s-0.7,1.2-0.7,2c0,0.8,0.2,1.4,0.7,1.9
		c0.5,0.5,1.1,0.7,1.8,0.7c0.7,0,1.5-0.3,2.4-0.8v2.2c-1.1,0.4-1.9,0.5-2.6,0.5c-1.2,0-2.2-0.4-3.1-1.3c-0.8-0.9-1.3-2-1.3-3.2
		c0-1.3,0.4-2.4,1.3-3.3c0.9-0.9,1.9-1.4,3.1-1.4C292.6,17.7,293.4,17.9,294.3,18.3z"/>
	<path d="M295.7,17.8h1.9v9h-1.9V17.8z"/>
	<path d="M299.1,22.3c0-1.3,0.4-2.4,1.3-3.3c0.9-0.9,1.9-1.3,3.1-1.3c1.3,0,2.4,0.4,3.3,1.3c0.9,0.9,1.3,2,1.3,3.3
		c0,1.3-0.4,2.4-1.3,3.3s-1.9,1.3-3.3,1.3c-1.3,0-2.4-0.4-3.2-1.3C299.5,24.7,299.1,23.6,299.1,22.3z M303.6,19.5
		c-0.8,0-1.4,0.2-1.8,0.8c-0.5,0.5-0.7,1.2-0.7,2.1c0,0.8,0.2,1.5,0.7,2c0.5,0.5,1.1,0.8,1.8,0.8c0.8,0,1.4-0.3,1.8-0.8
		c0.5-0.5,0.7-1.2,0.7-2c0-0.8-0.2-1.5-0.7-2C305,19.8,304.4,19.5,303.6,19.5z"/>
	<path d="M315.7,17.8h1.9v9h-1.9l-4.1-5.8v5.8h-1.9v-9h1.9l4.1,5.8V17.8z"/>
</g>
<rect x="323.5" y="12.7" class="st2" width="107.5" height="32.3"/>
<g class="st3">
	<path d="M360.9,12.8h2.2v10.3h-2.2l-4.7-6.6v6.6H354V12.8h2.2l4.7,6.6V12.8z"/>
	<path d="M368.7,12.8h1.7l4.2,10.3h-2.2l-0.8-2h-3.9l-0.8,2h-2.2L368.7,12.8z M369.5,16.2l-1.2,3h2.4L369.5,16.2z"/>
	<path d="M376.1,12.8h5.8v2h-3.6v2.1h3.6v2h-3.6v4.2h-2.2V12.8z"/>
	<path d="M383.1,12.8h6.9V15h-2.4v8.1h-2.2V15h-2.3V12.8z"/>
	<path d="M393.9,12.8h1.7l4.2,10.3h-2.2l-0.8-2h-3.9l-0.8,2h-2.2L393.9,12.8z M394.8,16.2l-1.2,3h2.4L394.8,16.2z"/>
</g>
<g class="st3">
	<path d="M345.8,26.8h3.5c0.9,0,1.7,0.3,2.3,0.8s0.9,1.3,0.9,2.2c0,0.6-0.1,1.1-0.4,1.7s-0.7,0.9-1.3,1.2s-1.1,0.4-1.5,0.4l-1.3,0v4
		h-2.2V26.8z M347.9,28.7v2.6h0.9c0.4,0,0.7-0.1,0.9-0.4s0.4-0.6,0.4-0.9c0-0.4-0.1-0.7-0.4-1s-0.7-0.3-1.3-0.3L347.9,28.7z"/>
	<path d="M354.2,26.8h3.4c1,0,1.8,0.3,2.4,0.8c0.6,0.5,0.9,1.3,0.9,2.2c0,0.5-0.1,1.1-0.4,1.6c-0.3,0.6-0.8,1-1.5,1.3l2.9,4.3h-2.5
		l-2.7-4h-0.3v4h-2.2V26.8z M356.4,28.7v2.7h0.5c1.2,0,1.7-0.5,1.7-1.4c0-0.4-0.2-0.7-0.5-0.9c-0.3-0.2-0.7-0.3-1.3-0.3H356.4z"/>
	<path d="M363.5,26.8h5.8v2h-3.6v2.1h3.6v2h-3.6v2.1h3.6v2h-5.8V26.8z"/>
	<path d="M371.9,26.8h2.6l1.9,6.1l1.9-6.1h2.5l1.3,10.3h-2.1l-0.9-7.2l-2.3,7.2h-1l-2.3-7.3l-0.9,7.3h-2.1L371.9,26.8z"/>
	<path d="M383.8,26.8h2.2v10.3h-2.2V26.8z"/>
	<path d="M388,26.8h2.2v6.3c0,0.6,0.2,1.1,0.5,1.4s0.7,0.5,1.3,0.5c0.6,0,1.1-0.2,1.4-0.5s0.5-0.9,0.5-1.5v-6.2h2.2v6.6
		c0,0.6-0.2,1.2-0.5,1.8s-0.8,1.1-1.4,1.4s-1.3,0.5-2.1,0.5c-1.4,0-2.4-0.4-3.1-1.2s-1-1.6-1-2.5V26.8z"/>
	<path d="M398.9,26.8h2.6l1.9,6.1l1.9-6.1h2.5l1.3,10.3h-2.1l-0.9-7.2l-2.3,7.2h-1l-2.3-7.3l-0.9,7.3h-2.1L398.9,26.8z"/>
</g>
<rect x="1" y="83.5" class="st2" width="107.5" height="24"/>
<g class="st3">
	<path d="M23.5,81.7h1.6v1.9c1.2,0.1,2.5,0.6,4,1.7l-1.6,2.1c-1-0.7-1.8-1.1-2.4-1.2v3.7c1.4,0.4,2.5,1,3.2,1.8c0.7,0.8,1,1.7,1,2.7
		c0,1.1-0.4,2-1.1,2.8c-0.7,0.8-1.8,1.3-3.1,1.5v3.4h-1.6v-3.5c-1-0.1-1.8-0.3-2.4-0.5c-0.6-0.3-1.2-0.7-1.8-1.2l1.4-2.1
		c1.1,0.7,2,1.2,2.8,1.3v-3.5c-1.6-0.7-2.7-1.3-3.2-2c-0.5-0.7-0.8-1.6-0.8-2.6c0-1,0.3-1.9,1-2.8s1.7-1.5,3-1.6V81.7z M23.4,89.4
		v-3.3c-0.3,0.1-0.6,0.2-0.8,0.6c-0.2,0.3-0.3,0.6-0.3,0.9C22.3,88.3,22.7,88.9,23.4,89.4z M25.1,93L25.1,93l0,3.2
		c0.9-0.2,1.3-0.6,1.3-1.4C26.4,94,26,93.4,25.1,93z"/>
	<path d="M33.5,84.1h7.1v2.6h-4.3l-0.2,1.7c1.6,0,2.9,0.5,3.8,1.4c0.9,1,1.3,2.1,1.3,3.4c0,1.5-0.6,2.7-1.7,3.8
		c-1.1,1.1-2.5,1.6-4,1.6c-0.7,0-1.4-0.1-1.9-0.3c-0.6-0.2-1.2-0.5-1.9-1l0.3-3.3c1.6,1,2.8,1.6,3.7,1.6c0.6,0,1.2-0.2,1.7-0.7
		c0.5-0.5,0.7-1,0.7-1.6c0-0.7-0.2-1.3-0.7-1.7c-0.5-0.5-1.1-0.7-1.8-0.7c-0.9,0-1.8,0.2-2.8,0.6L33.5,84.1z"/>
	<path d="M49.4,84.1h2.9v8.3h1.4V95h-1.4v3.4h-3.1V95h-6.4v-2.7L49.4,84.1z M49.1,87.7l-3.7,4.7h3.7L49.1,87.7L49.1,87.7z"/>
	<path d="M61.6,84.1h2.9v8.3h1.4V95h-1.4v3.4h-3.1V95H55v-2.7L61.6,84.1z M61.4,87.7l-3.7,4.7h3.7L61.4,87.7L61.4,87.7z"/>
	<path d="M73.1,83.9c1.7,0,3.1,0.7,4.1,2s1.5,3,1.5,5.2c0,2.5-0.6,4.4-1.7,5.7s-2.4,1.8-3.9,1.8c-1.7,0-3-0.7-4.1-2
		c-1-1.3-1.6-3-1.6-5.2c0-2.3,0.5-4.1,1.5-5.5C70,84.6,71.3,83.9,73.1,83.9L73.1,83.9z M75.6,91.4c0-1.5-0.2-2.6-0.7-3.4
		s-1.1-1.2-1.9-1.2c-0.8,0-1.5,0.4-1.9,1.2s-0.7,2-0.7,3.5c0,1.3,0.2,2.4,0.7,3.2s1.1,1.2,1.9,1.2c0.8,0,1.4-0.4,1.9-1.2
		C75.4,93.9,75.6,92.8,75.6,91.4z"/>
	<path d="M85.3,83.9c1.7,0,3.1,0.7,4.1,2s1.5,3,1.5,5.2c0,2.5-0.6,4.4-1.7,5.7s-2.4,1.8-3.9,1.8c-1.7,0-3-0.7-4.1-2
		c-1-1.3-1.6-3-1.6-5.2c0-2.3,0.5-4.1,1.5-5.5C82.2,84.6,83.5,83.9,85.3,83.9L85.3,83.9z M87.9,91.4c0-1.5-0.2-2.6-0.7-3.4
		s-1.1-1.2-1.9-1.2c-0.8,0-1.5,0.4-1.9,1.2s-0.7,2-0.7,3.5c0,1.3,0.2,2.4,0.7,3.2s1.1,1.2,1.9,1.2c0.8,0,1.4-0.4,1.9-1.2
		C87.6,93.9,87.9,92.8,87.9,91.4z"/>
</g>
<rect x="108.5" y="83.5" class="st2" width="107.5" height="24"/>
<g class="st3">
	<path d="M131,81.7h1.6v1.9c1.2,0.1,2.5,0.6,4,1.7l-1.6,2.1c-1-0.7-1.8-1.1-2.4-1.2v3.7c1.4,0.4,2.5,1,3.2,1.8c0.7,0.8,1,1.7,1,2.7
		c0,1.1-0.4,2-1.1,2.8c-0.7,0.8-1.8,1.3-3.1,1.5v3.4H131v-3.5c-1-0.1-1.8-0.3-2.4-0.5c-0.6-0.3-1.2-0.7-1.8-1.2l1.4-2.1
		c1.1,0.7,2,1.2,2.8,1.3v-3.5c-1.6-0.7-2.7-1.3-3.2-2c-0.5-0.7-0.8-1.6-0.8-2.6c0-1,0.3-1.9,1-2.8s1.7-1.5,3-1.6V81.7z M130.9,89.4
		v-3.3c-0.3,0.1-0.6,0.2-0.8,0.6c-0.2,0.3-0.3,0.6-0.3,0.9C129.8,88.3,130.2,88.9,130.9,89.4z M132.6,93L132.6,93l0,3.2
		c0.9-0.2,1.3-0.6,1.3-1.4C133.9,94,133.5,93.4,132.6,93z"/>
	<path d="M141,84.1h7.1v2.6h-4.3l-0.2,1.7c1.6,0,2.9,0.5,3.8,1.4c0.9,1,1.3,2.1,1.3,3.4c0,1.5-0.6,2.7-1.7,3.8
		c-1.1,1.1-2.5,1.6-4,1.6c-0.7,0-1.4-0.1-1.9-0.3c-0.6-0.2-1.2-0.5-1.9-1l0.3-3.3c1.6,1,2.8,1.6,3.7,1.6c0.6,0,1.2-0.2,1.7-0.7
		c0.5-0.5,0.7-1,0.7-1.6c0-0.7-0.2-1.3-0.7-1.7c-0.5-0.5-1.1-0.7-1.8-0.7c-0.9,0-1.8,0.2-2.8,0.6L141,84.1z"/>
	<path d="M156.2,83.9c1.7,0,3.1,0.7,4.1,2s1.5,3,1.5,5.2c0,2.5-0.6,4.4-1.7,5.7s-2.4,1.8-3.9,1.8c-1.7,0-3-0.7-4.1-2
		c-1-1.3-1.6-3-1.6-5.2c0-2.3,0.5-4.1,1.5-5.5C153.1,84.6,154.4,83.9,156.2,83.9L156.2,83.9z M158.7,91.4c0-1.5-0.2-2.6-0.7-3.4
		s-1.1-1.2-1.9-1.2c-0.8,0-1.5,0.4-1.9,1.2s-0.7,2-0.7,3.5c0,1.3,0.2,2.4,0.7,3.2s1.1,1.2,1.9,1.2c0.8,0,1.4-0.4,1.9-1.2
		C158.5,93.9,158.7,92.8,158.7,91.4z"/>
	<path d="M168.4,83.9c1.7,0,3.1,0.7,4.1,2s1.5,3,1.5,5.2c0,2.5-0.6,4.4-1.7,5.7s-2.4,1.8-3.9,1.8c-1.7,0-3-0.7-4.1-2
		c-1-1.3-1.6-3-1.6-5.2c0-2.3,0.5-4.1,1.5-5.5C165.3,84.6,166.6,83.9,168.4,83.9L168.4,83.9z M170.9,91.4c0-1.5-0.2-2.6-0.7-3.4
		s-1.1-1.2-1.9-1.2c-0.8,0-1.5,0.4-1.9,1.2s-0.7,2-0.7,3.5c0,1.3,0.2,2.4,0.7,3.2s1.1,1.2,1.9,1.2c0.8,0,1.4-0.4,1.9-1.2
		C170.7,93.9,170.9,92.8,170.9,91.4z"/>
	<path d="M180.6,83.9c1.7,0,3.1,0.7,4.1,2s1.5,3,1.5,5.2c0,2.5-0.6,4.4-1.7,5.7s-2.4,1.8-3.9,1.8c-1.7,0-3-0.7-4.1-2
		c-1-1.3-1.6-3-1.6-5.2c0-2.3,0.5-4.1,1.5-5.5C177.5,84.6,178.8,83.9,180.6,83.9L180.6,83.9z M183.1,91.4c0-1.5-0.2-2.6-0.7-3.4
		s-1.1-1.2-1.9-1.2c-0.8,0-1.5,0.4-1.9,1.2s-0.7,2-0.7,3.5c0,1.3,0.2,2.4,0.7,3.2s1.1,1.2,1.9,1.2c0.8,0,1.4-0.4,1.9-1.2
		C182.9,93.9,183.1,92.8,183.1,91.4z"/>
	<path d="M192.8,83.9c1.7,0,3.1,0.7,4.1,2s1.5,3,1.5,5.2c0,2.5-0.6,4.4-1.7,5.7s-2.4,1.8-3.9,1.8c-1.7,0-3-0.7-4.1-2
		c-1-1.3-1.6-3-1.6-5.2c0-2.3,0.5-4.1,1.5-5.5C189.7,84.6,191,83.9,192.8,83.9L192.8,83.9z M195.4,91.4c0-1.5-0.2-2.6-0.7-3.4
		s-1.1-1.2-1.9-1.2c-0.8,0-1.5,0.4-1.9,1.2s-0.7,2-0.7,3.5c0,1.3,0.2,2.4,0.7,3.2s1.1,1.2,1.9,1.2c0.8,0,1.4-0.4,1.9-1.2
		C195.1,93.9,195.4,92.8,195.4,91.4z"/>
</g>
<rect x="216" y="83.5" class="st2" width="107.5" height="24"/>
<g class="st3">
	<path d="M226.4,84.2h4.7v14.3h-3.1V86.8h-2.1L226.4,84.2z"/>
	<path d="M242.7,95.8h4.1v2.7h-10l4.9-6.2c0.7-0.9,1.2-1.7,1.5-2.2c0.3-0.6,0.5-1.1,0.5-1.6c0-0.6-0.2-1-0.5-1.4s-0.8-0.5-1.4-0.5
		c-0.6,0-1.1,0.2-1.4,0.7c-0.3,0.5-0.5,1.2-0.5,2.1h-3.2c0-1.7,0.5-3.1,1.5-4c1-1,2.3-1.4,3.8-1.4c1.4,0,2.6,0.4,3.4,1.2
		c0.9,0.8,1.3,1.9,1.3,3.2c0,1.3-0.5,2.6-1.6,4.2l-0.9,1.2c-0.3,0.5-0.8,1.1-1.3,1.7L242.7,95.8z"/>
	<path d="M256.5,83.7h3.8l2.8,8.8l2.8-8.8h3.6l1.9,14.7h-3L267,88.1l-3.2,10.4h-1.4L259,88l-1.2,10.5h-3.1L256.5,83.7z"/>
	<path d="M273.7,83.7h8.3v2.9h-5.1v3h5.1v2.9h-5.1v3.1h5.1v2.9h-8.3V83.7z"/>
	<path d="M292.9,85.1l-2,2.2c-1-0.6-1.8-0.9-2.2-0.9c-0.4,0-0.7,0.1-0.9,0.4c-0.3,0.3-0.4,0.6-0.4,0.9c0,0.7,0.7,1.4,2,1.9
		c1,0.4,1.7,0.8,2.2,1.1s0.9,0.8,1.2,1.4s0.5,1.2,0.5,1.9c0,1.3-0.5,2.4-1.5,3.3c-1,0.9-2.2,1.4-3.6,1.4c-1.5,0-3-0.7-4.5-2.2
		l2.1-2.4c0.9,1,1.8,1.4,2.6,1.4c0.4,0,0.7-0.2,1.1-0.5c0.4-0.3,0.5-0.7,0.5-1.1c0-0.8-0.8-1.4-2.4-2c-0.9-0.3-1.6-0.7-2-1
		c-0.4-0.3-0.7-0.7-1-1.3c-0.3-0.6-0.4-1.1-0.4-1.7c0-1.3,0.4-2.4,1.3-3.2s2-1.2,3.3-1.2C290.5,83.5,291.8,84,292.9,85.1z"/>
	<path d="M295.6,83.7h8.3v2.9h-5.1v3h5.1v2.9h-5.1v3.1h5.1v2.9h-8.3V83.7z"/>
	<path d="M314.9,85.1l-2,2.2c-1-0.6-1.8-0.9-2.2-0.9c-0.4,0-0.7,0.1-0.9,0.4c-0.3,0.3-0.4,0.6-0.4,0.9c0,0.7,0.7,1.4,2,1.9
		c1,0.4,1.7,0.8,2.2,1.1s0.9,0.8,1.2,1.4s0.5,1.2,0.5,1.9c0,1.3-0.5,2.4-1.5,3.3c-1,0.9-2.2,1.4-3.6,1.4c-1.5,0-3-0.7-4.5-2.2
		l2.1-2.4c0.9,1,1.8,1.4,2.6,1.4c0.4,0,0.7-0.2,1.1-0.5c0.4-0.3,0.5-0.7,0.5-1.1c0-0.8-0.8-1.4-2.4-2c-0.9-0.3-1.6-0.7-2-1
		c-0.4-0.3-0.7-0.7-1-1.3c-0.3-0.6-0.4-1.1-0.4-1.7c0-1.3,0.4-2.4,1.3-3.2s2-1.2,3.3-1.2C312.4,83.5,313.8,84,314.9,85.1z"/>
</g>
<rect x="323.5" y="83.5" class="st2" width="107.5" height="24"/>
<g class="st3">
	<path d="M345.8,90.9c1.4,0.9,2.1,2.1,2.1,3.6c0,1.2-0.4,2.2-1.3,3c-0.9,0.8-2,1.2-3.5,1.2c-1.5,0-2.6-0.4-3.5-1.1s-1.3-1.8-1.3-3
		c0-1.5,0.7-2.7,2.1-3.6c-0.6-0.5-1-1-1.3-1.5c-0.3-0.5-0.4-1.1-0.4-1.7c0-1,0.4-1.9,1.2-2.7c0.8-0.8,1.9-1.1,3.3-1.1
		c1.4,0,2.5,0.3,3.3,1c0.8,0.7,1.2,1.6,1.2,2.7C347.6,89,347,90,345.8,90.9z M344.9,94.1c0-0.5-0.2-0.9-0.5-1.3
		c-0.4-0.4-0.8-0.5-1.3-0.5c-0.5,0-0.9,0.2-1.2,0.6c-0.3,0.4-0.5,0.8-0.5,1.3c0,0.5,0.2,0.9,0.5,1.3c0.4,0.4,0.8,0.6,1.2,0.6
		c0.5,0,0.9-0.2,1.3-0.5C344.7,95,344.9,94.6,344.9,94.1z M344.6,88.1c0-0.5-0.1-0.9-0.4-1.2c-0.3-0.3-0.6-0.5-1.1-0.5
		c-0.4,0-0.8,0.1-1.1,0.4c-0.3,0.3-0.4,0.6-0.4,1.1c0,0.4,0.1,0.8,0.4,1.1c0.3,0.3,0.6,0.4,1.1,0.4c0.4,0,0.7-0.1,1-0.4
		S344.6,88.5,344.6,88.1z"/>
	<path d="M357.9,83.7h3.8l2.8,8.8l2.8-8.8h3.6l1.9,14.7h-3l-1.3-10.4l-3.2,10.4h-1.4L360.4,88l-1.2,10.5h-3.1L357.9,83.7z"/>
	<path d="M375.1,83.7h8.3v2.9h-5.1v3h5.1v2.9h-5.1v3.1h5.1v2.9h-8.3V83.7z"/>
	<path d="M394.3,85.1l-2,2.2c-1-0.6-1.8-0.9-2.2-0.9c-0.4,0-0.7,0.1-0.9,0.4c-0.3,0.3-0.4,0.6-0.4,0.9c0,0.7,0.7,1.4,2,1.9
		c1,0.4,1.7,0.8,2.2,1.1s0.9,0.8,1.2,1.4c0.3,0.6,0.5,1.2,0.5,1.9c0,1.3-0.5,2.4-1.5,3.3c-1,0.9-2.2,1.4-3.6,1.4
		c-1.5,0-3-0.7-4.5-2.2l2.1-2.4c0.9,1,1.8,1.4,2.6,1.4c0.4,0,0.7-0.2,1.1-0.5c0.4-0.3,0.5-0.7,0.5-1.1c0-0.8-0.8-1.4-2.4-2
		c-0.9-0.3-1.6-0.7-2-1c-0.4-0.3-0.7-0.7-1-1.3s-0.4-1.1-0.4-1.7c0-1.3,0.4-2.4,1.3-3.2s2-1.2,3.3-1.2
		C391.9,83.5,393.2,84,394.3,85.1z"/>
	<path d="M397,83.7h8.3v2.9h-5.1v3h5.1v2.9h-5.1v3.1h5.1v2.9H397V83.7z"/>
	<path d="M416.3,85.1l-2,2.2c-1-0.6-1.8-0.9-2.2-0.9c-0.4,0-0.7,0.1-0.9,0.4c-0.3,0.3-0.4,0.6-0.4,0.9c0,0.7,0.7,1.4,2,1.9
		c1,0.4,1.7,0.8,2.2,1.1s0.9,0.8,1.2,1.4c0.3,0.6,0.5,1.2,0.5,1.9c0,1.3-0.5,2.4-1.5,3.3c-1,0.9-2.2,1.4-3.6,1.4
		c-1.5,0-3-0.7-4.5-2.2l2.1-2.4c0.9,1,1.8,1.4,2.6,1.4c0.4,0,0.7-0.2,1.1-0.5c0.4-0.3,0.5-0.7,0.5-1.1c0-0.8-0.8-1.4-2.4-2
		c-0.9-0.3-1.6-0.7-2-1c-0.4-0.3-0.7-0.7-1-1.3s-0.4-1.1-0.4-1.7c0-1.3,0.4-2.4,1.3-3.2s2-1.2,3.3-1.2
		C413.8,83.5,415.2,84,416.3,85.1z"/>
</g>
</svg>
